<?xml version="1.0" encoding="UTF-8" standalone="no"?>
<svg
   xmlns:dc="http://purl.org/dc/elements/1.1/"
   xmlns:cc="http://creativecommons.org/ns#"
   xmlns:rdf="http://www.w3.org/1999/02/22-rdf-syntax-ns#"
   xmlns:svg="http://www.w3.org/2000/svg"
   xmlns="http://www.w3.org/2000/svg"
   id="svg8"
   version="1.1"
   viewBox="0 0 155.37387 145.95741"
   height="145.95741mm"
   width="155.37387mm">
  <defs
     id="defs2" />
  <metadata
     id="metadata5">
    <rdf:RDF>
      <cc:Work
         rdf:about="">
        <dc:format>image/svg+xml</dc:format>
        <dc:type
           rdf:resource="http://purl.org/dc/dcmitype/StillImage" />
        <dc:title></dc:title>
      </cc:Work>
    </rdf:RDF>
  </metadata>
  <g
     transform="translate(295.73292,-25.687513)"
     id="layer1">
    <path
       id="path6866"
       d="m -291.65787,171.51262 c -0.0957,-0.15477 -0.46133,-0.19019 -0.81262,-0.0787 -1.16203,0.36882 -1.69488,-0.68921 -1.90515,-3.78293 -0.10907,-1.60461 -0.27701,-16.8081 -0.3732,-33.78553 -0.0962,-16.97743 -0.25658,-38.170547 -0.3564,-47.095827 -0.0998,-8.92528 -0.28189,-25.94065 -0.40459,-37.811929 l -0.22309,-21.584153 1.1865,-0.220499 c 0.65258,-0.121274 5.94901,-0.175037 11.76984,-0.119473 16.21062,0.154742 107.0563,-0.464081 108.65554,-0.74014 0.77612,-0.133972 2.04612,-0.100477 2.82223,0.07443 0.79434,0.179018 6.19109,0.219097 12.34722,0.0917 12.63165,-0.261408 14.94777,-0.364967 15.75975,-0.704649 0.39081,-0.163494 0.70275,-0.02907 0.92304,0.397773 0.38612,0.748178 0.8312,30.20068 1.28121,84.782217 0.11598,14.06701 0.28986,28.03701 0.38641,31.04444 0.37278,11.61221 0.30219,27.87879 -0.12283,28.30381 -0.30291,0.30291 -7.18728,0.437 -26.25242,0.51135 -14.213,0.0554 -40.68495,0.19062 -58.82655,0.30044 -18.14159,0.10983 -38.54096,0.20766 -45.33194,0.21741 -6.79097,0.01 -14.14762,0.12212 -16.34812,0.2497 -2.2005,0.12758 -4.07917,0.10533 -4.17483,-0.0494 z m 55.5179,-2.35937 c 0.77294,-0.20266 1.17507,-0.16749 1.27683,0.11167 0.11072,0.30375 0.33573,0.29707 0.88383,-0.0263 0.47435,-0.27982 0.81257,-0.30871 0.95304,-0.0814 0.12972,0.2099 1.02767,0.2659 2.22122,0.13854 2.61424,-0.27896 2.60674,-0.27901 3.32638,0.0196 0.33955,0.14088 0.61765,0.1201 0.61801,-0.0462 3.5e-4,-0.16628 0.75442,-0.32292 1.67569,-0.34809 0.92128,-0.0251 1.91317,-0.11821 2.20422,-0.20676 0.29104,-0.0885 0.39214,-0.0884 0.22466,2.7e-4 -0.16747,0.0887 -0.10135,0.28683 0.14694,0.44028 0.51913,0.32084 2.132,-0.20745 2.52623,-0.82745 0.17845,-0.28065 0.26815,-0.21515 0.27177,0.19845 0.003,0.33955 0.16415,0.61737 0.35817,0.61737 0.19403,0 0.35278,-0.14824 0.35278,-0.32942 0,-0.18118 0.36832,-0.26263 0.81849,-0.181 1.78807,0.32424 6.23806,0.44143 6.4066,0.16873 0.0985,-0.15939 0.84031,-0.14124 1.64845,0.0403 0.97922,0.22002 1.59181,0.20766 1.83651,-0.037 0.20195,-0.20194 0.25046,-0.36717 0.10782,-0.36717 -0.14265,0 -0.0926,-0.31159 0.11121,-0.69242 0.22915,-0.42817 0.58175,-0.61138 0.92394,-0.48007 0.40704,0.15619 0.44031,0.28222 0.12581,0.47659 -1.27769,0.78965 0.5875,1.00782 5.30728,0.62077 1.75596,-0.144 1.66565,-1.10372 -0.12572,-1.33598 l -1.36045,-0.17639 0.98908,-1.05833 0.98909,-1.05834 0.21121,0.88195 c 0.18292,0.76379 0.24416,0.79624 0.45707,0.24222 0.14861,-0.3867 0.41494,-0.53521 0.67336,-0.37551 0.23513,0.14532 0.86551,0.31217 1.40085,0.37078 0.74103,0.0811 0.92528,-0.0187 0.77197,-0.41824 -0.22764,-0.59322 0.75435,-0.74557 1.10882,-0.17203 0.27451,0.44417 1.23472,0.46428 1.23472,0.0259 0,-0.1798 -0.27781,-0.39951 -0.61736,-0.48824 -0.45297,-0.11838 -0.40046,-0.17224 0.19721,-0.20226 0.44801,-0.0225 0.71646,-0.19967 0.59654,-0.3937 -0.11992,-0.19403 0.0919,-0.35278 0.4706,-0.35278 0.37875,0 0.78276,-0.24529 0.89781,-0.54509 0.29977,-0.7812 2.63665,-1.70103 3.17869,-1.25117 0.64558,0.53578 1.97929,0.0544 1.97929,-0.71433 0,-0.7508 0.53972,-0.89198 0.85416,-0.22344 0.11408,0.24254 0.14933,0.004 0.0783,-0.52916 -0.071,-0.53358 0.008,-0.97014 0.17477,-0.97014 0.16712,0 0.30386,0.15875 0.30386,0.35278 0,0.73635 1.28339,0.30052 2.4936,-0.84681 0.69238,-0.6564 1.56152,-1.25174 1.93141,-1.32298 0.3699,-0.0712 0.87263,-0.52499 1.11718,-1.00834 0.24455,-0.48335 0.44697,-0.74842 0.44983,-0.58904 0.003,0.15938 0.25612,0.0389 0.56281,-0.26782 0.30668,-0.30668 0.70271,-0.46793 0.88005,-0.35833 0.17734,0.10961 0.83923,-0.28507 1.47086,-0.87707 0.63164,-0.59199 1.38655,-1.07951 1.67759,-1.08338 0.47037,-0.006 0.47037,-0.049 0,-0.38502 -0.43057,-0.30755 -0.38937,-0.34768 0.22113,-0.21537 0.65743,0.14247 3.36364,-1.57498 4.00835,-2.54384 0.17912,-0.26918 0.92561,-0.69409 3.79621,-2.16084 0.82462,-0.42135 1.49931,-0.87795 1.49931,-1.01467 0,-0.13673 0.56563,-0.51832 1.25694,-0.84799 1.0388,-0.49537 1.21847,-0.7363 1.03523,-1.38825 -0.1688,-0.60057 -0.13653,-0.66491 0.13519,-0.26959 0.30738,0.44723 0.38926,0.43499 0.59002,-0.0882 0.12821,-0.3341 0.45983,-0.60746 0.73694,-0.60746 0.66751,0 2.2429,-1.04616 2.2429,-1.48943 0,-0.19247 -0.23812,-0.25857 -0.52916,-0.14689 -0.29105,0.11169 -0.52917,0.0633 -0.52917,-0.10764 0,-0.17088 0.67469,-0.41928 1.4993,-0.55199 2.11859,-0.34096 3.18208,-1.08147 2.88725,-2.01038 -0.19085,-0.60131 -0.11966,-0.69517 0.38142,-0.50289 0.39295,0.15079 1.03796,-0.0854 1.78106,-0.65219 0.64075,-0.48873 1.45503,-0.88859 1.80951,-0.88859 0.35447,0 1.06265,-0.38773 1.57372,-0.86162 0.51106,-0.47389 1.52505,-1.11057 2.25329,-1.41485 0.72825,-0.30428 1.4991,-0.77188 1.71301,-1.03912 0.48853,-0.6103 3.60805,-2.32886 4.22734,-2.32886 0.25408,0 0.7493,-0.3175 1.10049,-0.70555 0.48829,-0.53956 0.5219,-0.70683 0.14287,-0.71096 -0.31247,-0.004 -0.3588,-0.10119 -0.12534,-0.26458 0.528,-0.36956 0.6423,-5.17669 0.14516,-6.1056 -0.28364,-0.52999 -0.29657,-0.84099 -0.0415,-0.99863 0.42284,-0.26132 0.35034,-11.97121 -0.0784,-12.66493 -0.14343,-0.23208 -0.12462,-0.42197 0.0418,-0.42197 0.16643,0 0.29486,-0.63449 0.2854,-1.40999 -0.0184,-1.51012 -0.15235,-1.66326 -0.84947,-0.97126 -0.35642,0.3538 -0.39289,0.3015 -0.18449,-0.26458 0.14287,-0.38806 0.40992,-0.80636 0.59345,-0.92957 0.45711,-0.30687 0.64655,-2.941 0.28176,-3.91798 -0.16691,-0.44705 -0.15668,-1.17058 0.0233,-1.64809 0.20131,-0.53405 0.19069,-0.98137 -0.0285,-1.200567 -0.23064,-0.23065 -0.22956,-0.57325 0.003,-1.00818 0.19392,-0.36234 0.25639,-0.81445 0.13881,-1.0047 -0.11758,-0.19024 -0.22187,-3.36196 -0.23177,-7.04826 -0.0115,-4.27289 -0.14736,-6.70237 -0.37489,-6.70237 -0.21917,0 -0.2021,-0.18653 0.0442,-0.48334 0.41093,-0.49514 0.42808,-15.03873 0.0177,-15.03883 -0.10819,-3e-5 -0.4698,0.61896 -0.8036,1.37553 -0.44135,1.00033 -1.25381,1.80679 -2.97831,2.9563 -1.30427,0.8694 -2.7997,1.68009 -3.32318,1.80153 -0.86584,0.20088 -0.9614,0.38783 -1.05833,2.07078 -0.12736,2.21109 -0.93815,2.54225 -1.50637,0.61525 -0.5523,-1.87306 -0.81847,-2.11667 -2.31266,-2.11667 -1.66008,0 -4.36696,-1.3819 -5.71855,-2.91942 -1.34708,-1.53238 -2.03382,-3.87051 -2.10051,-7.15148 -0.0421,-2.0704 0.11015,-3.15598 0.58099,-4.14318 0.61911,-1.29805 0.61832,-1.35276 -0.0266,-1.84563 -0.36551,-0.27936 -1.33926,-0.8425 -2.16388,-1.25141 -0.82461,-0.40892 -1.4993,-0.85098 -1.4993,-0.98237 0,-0.13139 -0.87313,-0.76113 -1.94028,-1.39942 -1.06715,-0.63829 -1.94028,-1.29968 -1.94028,-1.46976 0,-0.17007 -0.34498,-0.41872 -0.76663,-0.55254 -0.42164,-0.13383 -1.05705,-0.51389 -1.41201,-0.84458 -0.45919,-0.42781 -1.30084,-0.61121 -2.91738,-0.63572 -1.78275,-0.027 -2.61695,-0.23661 -3.87388,-0.97322 -2.44127,-1.430676 -4.43565,-4.38396 -4.43565,-6.568309 0,-0.355106 -0.69273,-1.284181 -1.5394,-2.064611 -1.32407,-1.22049 -1.53939,-1.616257 -1.53939,-2.829487 0,-1.804586 0.45284,-1.825315 0.73931,-0.03384 0.19655,1.229144 0.43767,1.498643 2.24995,2.514721 1.11639,0.625922 3.37918,2.123725 5.02842,3.32845 1.64923,1.204724 4.34798,3.06174 5.99722,4.1267 1.64924,1.064956 4.87542,3.432336 7.1693,5.260836 4.53735,3.61682 4.82514,3.79978 4.82514,3.06752 0,-0.43517 -1.78855,-2.03602 -2.27474,-2.03602 -0.10265,0 -0.46626,-0.22937 -0.80803,-0.5097 -0.67899,-0.55694 -3.81881,-2.87966 -5.03355,-3.72364 -0.4189,-0.29104 -1.2155,-0.92604 -1.77021,-1.41111 -1.57819,-1.38003 -3.07327,-2.468905 -3.39843,-2.475075 -0.16334,-0.0031 -0.83443,-0.479349 -1.49131,-1.058333 -0.65689,-0.578984 -1.29619,-1.052698 -1.42069,-1.052698 -0.12449,0 -0.72219,-0.436563 -1.32821,-0.970139 -0.60607,-0.533589 -1.63274,-1.367026 -2.28153,-1.852096 -0.6488,-0.485069 -1.85291,-1.536866 -2.67581,-2.337327 -2.49669,-2.428609 -3.05081,-2.687139 -4.77552,-2.228091 -0.82136,0.218615 -2.04901,0.685913 -2.72811,1.03844 -0.6791,0.352526 -1.9491,0.905427 -2.82222,1.228668 -0.87313,0.32324 -2.81042,1.290095 -4.30509,2.148565 -1.49468,0.858471 -2.95375,1.560857 -3.24238,1.560857 -0.28863,0 -0.61539,0.146611 -0.72614,0.325804 -0.11074,0.179192 -1.03293,0.594053 -2.04929,0.921913 -1.01636,0.32786 -2.16543,0.791136 -2.55349,1.029502 -0.38806,0.238366 -1.18181,0.549327 -1.76389,0.691026 -0.93656,0.227989 -5.87892,2.269165 -9.87778,4.079484 -0.77611,0.35135 -2.99861,1.23507 -4.93888,1.96383 -1.94028,0.72875 -3.76591,1.52133 -4.05695,1.76128 -0.29104,0.23995 -1.95792,1.02546 -3.70416,1.74559 -1.74625,0.72012 -3.97103,1.69057 -4.94396,2.15655 -0.97292,0.46598 -1.90272,0.84724 -2.06623,0.84724 -0.39658,0 -4.85957,2.11274 -5.44818,2.57912 -0.25516,0.20217 -0.81078,0.39936 -1.23472,0.4382 -0.42394,0.0388 -1.56455,0.39362 -2.53469,0.78842 -0.97014,0.39479 -2.63701,1.0572 -3.70417,1.47203 -1.06715,0.41482 -2.41653,0.97005 -2.99861,1.23384 -2.04798,0.92812 -5.67944,2.37031 -8.99583,3.57258 -1.84326,0.66823 -3.82764,1.4424 -4.40972,1.72037 -3.20174,1.52901 -5.14959,2.30655 -5.77817,2.30655 -0.38862,0 -0.79697,0.14625 -0.90744,0.325 -0.11047,0.17874 -0.95328,0.59888 -1.8729,0.93363 -0.91963,0.33475 -2.94205,1.19932 -4.49427,1.92126 -5.18427,2.4112 -7.70054,3.50282 -11.07437,4.80434 l -2.6077,1.00597 0.19338,19.758367 c 0.10637,10.86711 0.28101,29.5215 0.38811,41.45421 0.18926,21.08849 0.34379,25.04722 0.9777,25.04722 0.16765,0 0.30483,-0.15875 0.30483,-0.35278 0,-0.19403 0.23812,-0.35278 0.52916,-0.35278 0.29104,0 0.52917,0.15875 0.52917,0.35278 0,0.19403 0.23812,0.35278 0.52917,0.35278 0.35277,0 0.52916,-0.35278 0.52916,-1.05833 0,-0.58209 0.15377,-1.05834 0.34171,-1.05834 0.18794,0 0.25033,0.23813 0.13864,0.52917 -0.17312,0.45115 0.27043,0.72382 0.71734,0.44097 0.0766,-0.0485 0.43383,0.17634 0.79375,0.49965 0.35992,0.32332 1.13065,0.64082 1.71273,0.70556 2.4135,0.26843 48.77495,0.22312 49.81161,-0.0487 z m 26.28399,-1.87192 c -0.1949,-0.2395 -0.24844,-1.04957 -0.12045,-1.8225 l 0.23039,-1.39136 0.61459,0.93798 c 0.74376,1.13512 0.76722,1.56612 0.12045,2.21288 -0.38576,0.38577 -0.57107,0.39959 -0.84498,0.063 z m 5.57245,0.098 c -0.47037,-0.30398 -0.47037,-0.33982 0,-0.32258 0.29104,0.0106 0.84666,0.15583 1.23472,0.32258 l 0.70555,0.30319 -0.70555,0.0194 c -0.38806,0.0106 -0.94368,-0.13449 -1.23472,-0.32258 z m -54.98214,-0.32114 c -0.33674,-0.20812 -0.31451,-0.37227 0.0966,-0.71349 0.74796,-0.62075 1.31385,-0.3355 0.77735,0.39185 -0.25643,0.34765 -0.61712,0.48039 -0.87399,0.32164 z m 9.85444,-0.5902 c 0.0169,-0.41097 0.10052,-0.49456 0.21313,-0.21314 0.10191,0.25466 0.0894,0.55894 -0.0278,0.67616 -0.11723,0.11722 -0.2006,-0.0911 -0.18528,-0.46302 z m 7.97803,0.33297 c -0.28184,-0.28185 0.0368,-0.83274 0.4816,-0.83274 0.18258,0 0.33196,0.23812 0.33196,0.52917 0,0.54553 -0.41626,0.70086 -0.81356,0.30357 z m 8.9553,-0.33297 c 0.0169,-0.41097 0.10052,-0.49456 0.21313,-0.21314 0.10191,0.25466 0.0894,0.55894 -0.0278,0.67616 -0.11722,0.11722 -0.2006,-0.0911 -0.18528,-0.46302 z m 1.97857,0.33073 c -0.46006,-0.46006 -0.24041,-0.8305 0.49242,-0.8305 0.41054,0 0.67331,0.18491 0.59531,0.41892 -0.17184,0.51553 -0.76089,0.73842 -1.08773,0.41158 z m 5.04913,-0.12495 c 0,-0.19402 0.15875,-0.35277 0.35278,-0.35277 0.19403,0 0.35278,0.15875 0.35278,0.35277 0,0.19403 -0.15875,0.35278 -0.35278,0.35278 -0.19403,0 -0.35278,-0.15875 -0.35278,-0.35278 z m 9.22514,0.0176 c 0.0776,-0.23283 0.25621,-0.41142 0.39688,-0.39687 0.42181,0.0436 0.34012,0.5275 -0.11466,0.6791 -0.23283,0.0776 -0.35983,-0.0494 -0.28222,-0.28223 z m 9.11931,-0.37041 c 0,-0.68763 0.37418,-0.91934 0.79884,-0.49468 0.28261,0.28262 -0.0873,1.20023 -0.48381,1.20023 -0.17327,0 -0.31503,-0.3175 -0.31503,-0.70555 z m -26.81111,0 c 0,-0.19403 0.15875,-0.35278 0.35277,-0.35278 0.19403,0 0.35278,0.15875 0.35278,0.35278 0,0.19402 -0.15875,0.35277 -0.35278,0.35277 -0.19402,0 -0.35277,-0.15875 -0.35277,-0.35277 z m -19.22283,-0.35853 c 0.12187,-0.1972 0.36936,-0.26721 0.54998,-0.15557 0.48932,0.30241 0.39808,0.5141 -0.22158,0.5141 -0.3025,0 -0.45028,-0.16134 -0.3284,-0.35853 z m 3.70061,-1.22897 c 0,-0.29104 0.15376,-0.52917 0.3417,-0.52917 0.18794,0 0.25033,0.23813 0.13865,0.52917 -0.11169,0.29104 -0.26545,0.52916 -0.34171,0.52916 -0.0762,0 -0.13864,-0.23812 -0.13864,-0.52916 z m 37.04166,-0.17632 c 0,-0.19403 0.16812,-0.35278 0.3736,-0.35278 0.20548,0 0.27548,0.15875 0.15557,0.35278 -0.11992,0.19403 -0.28804,0.35278 -0.3736,0.35278 -0.0856,0 -0.15557,-0.15875 -0.15557,-0.35278 z m 11.78031,-0.9108 c 0.11777,-0.30691 0.21413,-0.63378 0.21413,-0.72637 0,-0.0926 0.15182,-0.0745 0.33737,0.0402 0.40957,0.25312 0.0807,1.24424 -0.41285,1.24424 -0.19403,0 -0.25642,-0.25111 -0.13865,-0.55802 z m -11.07476,-0.34474 c 0,-0.3025 0.16134,-0.45028 0.35854,-0.32841 0.19719,0.12187 0.2672,0.36937 0.15556,0.54999 -0.30241,0.48932 -0.5141,0.39808 -0.5141,-0.22158 z m 1.19571,-0.36182 c -0.14575,-0.58071 -0.0488,-1.0918 0.26684,-1.40749 0.42573,-0.42573 0.47674,-0.29704 0.36146,0.9118 -0.15627,1.63862 -0.31084,1.76056 -0.6283,0.49569 z m 6.56541,-0.49931 c 0,-0.19403 0.15875,-0.35278 0.35277,-0.35278 0.19403,0 0.35278,0.15875 0.35278,0.35278 0,0.19403 -0.15875,0.35278 -0.35278,0.35278 -0.19402,0 -0.35277,-0.15875 -0.35277,-0.35278 z m 15.01816,-3.83993 c -0.24151,-0.39076 0.49627,-1.80451 0.94169,-1.80451 0.36625,0 0.34277,0.12785 -0.22419,1.22067 -0.27317,0.52653 -0.59239,0.78628 -0.7175,0.58384 z m 2.26794,-1.14826 c 0,-0.22114 0.27782,-0.615 0.61737,-0.87524 0.5061,-0.38789 0.53049,-0.53037 0.13535,-0.79063 -0.33759,-0.22235 -0.3816,-0.49691 -0.14689,-0.91631 0.29853,-0.53344 0.401,-0.49828 0.93848,0.32201 0.72551,1.10727 1.27792,0.88141 1.27792,-0.5225 0,-0.76745 0.13351,-0.9752 0.52916,-0.82338 0.64204,0.24638 0.69699,1.0594 0.0882,1.30505 -0.24253,0.0979 -0.0441,0.20629 0.44097,0.24095 0.79622,0.0569 0.81337,0.088 0.17639,0.32015 -2.03714,0.7424 -2.99861,1.28433 -2.99861,1.69016 0,0.2485 -0.23812,0.45182 -0.52916,0.45182 -0.29105,0 -0.52917,-0.18094 -0.52917,-0.40208 z m -57.85555,-0.82023 c 0,-0.0902 0.31393,-0.33199 0.69762,-0.53733 0.56915,-0.3046 0.65965,-0.27441 0.49143,0.16398 -0.18274,0.4762 -1.18905,0.79217 -1.18905,0.37335 z m 33.00917,-0.81111 c -0.1377,-0.1377 -0.75515,-0.27563 -1.37212,-0.30653 -0.61697,-0.0309 -1.6774,-0.13578 -2.35649,-0.23309 -2.28794,-0.32782 -5.46086,-0.36604 -6.49309,-0.0782 -0.75764,0.21128 -1.12671,0.14677 -1.41486,-0.24729 -0.5456,-0.74616 -7.87793,-2.54057 -8.85276,-2.16649 -0.29391,0.11279 -0.7308,0.0465 -0.97087,-0.14729 -0.24006,-0.1938 -1.11116,-0.46364 -1.93578,-0.59964 -0.82462,-0.13601 -1.49931,-0.37655 -1.49931,-0.53455 0,-0.28154 -2.06803,-1.20124 -2.52534,-1.12307 -0.12776,0.0218 -0.98484,-0.36043 -1.90463,-0.84948 -1.08385,-0.57629 -1.79312,-0.76842 -2.01556,-0.54597 -0.44436,0.44436 -1.31558,0.10891 -1.31558,-0.50655 0,-0.66017 -4.30044,-2.73232 -4.61482,-2.22363 -0.14934,0.24162 -0.80283,-0.1591 -1.73545,-1.06417 -0.82275,-0.79846 -1.77432,-1.45174 -2.11459,-1.45174 -0.34027,0 -1.23394,-0.56412 -1.98594,-1.25359 -0.75199,-0.68948 -2.161,-1.75817 -3.13114,-2.37488 -0.97014,-0.6167 -1.81812,-1.24715 -1.88441,-1.40101 -0.0663,-0.15385 -0.6219,-0.49097 -1.23472,-0.74915 -0.61281,-0.25819 -1.93128,-1.20674 -2.92993,-2.1079 -0.99864,-0.90116 -1.9593,-1.63847 -2.13478,-1.63847 -0.44401,0 -3.28144,-3.02159 -3.28144,-3.49441 0,-0.21238 -0.23812,-0.38614 -0.52916,-0.38614 -0.29105,0 -0.52939,-0.19844 -0.52966,-0.44098 -2.7e-4,-0.24253 -0.62212,-1.14122 -1.3819,-1.99707 -0.75977,-0.85586 -1.5717,-1.96711 -1.80428,-2.46945 -0.79278,-1.71226 -0.981,-1.97167 -1.36661,-1.88348 -0.21209,0.0485 -0.38561,-0.11428 -0.38561,-0.36176 0,-0.24747 -0.47127,-1.39841 -1.04726,-2.55764 -0.576,-1.15922 -1.05225,-2.43312 -1.05834,-2.83087 -0.006,-0.39776 -0.20157,-0.9137 -0.4344,-1.14653 -0.23283,-0.23284 -0.32329,-0.42334 -0.20101,-0.42334 0.12227,0 0.0712,-0.51593 -0.11355,-1.14652 -0.67491,-2.30394 -0.8243,-4.08152 -0.8079,-9.6132 0.0142,-4.7894 0.13321,-6.012927 0.78563,-8.076987 1.0977,-3.47279 3.41247,-8.47398 5.15932,-11.14702 2.78567,-4.26266 11.06086,-12.34136 15.77466,-15.40011 3.12662,-2.02885 13.8727,-7.13865 16.51507,-7.85298 6.86079,-1.85472 16.79033,-3.28822 22.03059,-3.18049 1.75616,0.0361 4.85989,0.34682 6.89718,0.69047 5.40986,0.91256 15.96316,3.12592 16.59911,3.48137 0.30124,0.16838 1.7851,0.6456 3.29745,1.06051 2.73204,0.74953 4.0344,1.29653 6.73816,2.8301 0.77612,0.4402 2.04367,1.1417 2.81679,1.55887 4.04252,2.18132 10.52386,7.87686 13.93057,12.24161 0.67381,0.86331 1.35074,1.72841 1.50427,1.92244 1.96463,2.48286 5.89416,9.80521 7.60821,14.17726 1.71603,4.377117 2.92252,13.194507 2.42906,17.752367 -0.15735,1.45343 -0.33278,3.19822 -0.38982,3.87731 -0.0571,0.6791 -0.2943,1.70478 -0.52722,2.27929 -0.23292,0.57451 -0.32894,1.42125 -0.2134,1.88164 0.11556,0.4604 0.0671,0.74873 -0.10757,0.64075 -0.44376,-0.27426 -1.61456,2.44741 -1.28336,2.9833 0.16481,0.26666 0.12583,0.34842 -0.0997,0.20906 -0.20367,-0.12588 -0.46633,0.0213 -0.58367,0.32712 -0.30288,0.78928 -0.27844,0.85107 0.33663,0.85107 0.30249,0 0.44669,0.16712 0.32045,0.3714 -0.12625,0.20427 -0.40794,0.31193 -0.62597,0.23925 -0.35604,-0.11868 -3.06489,3.63559 -3.06794,4.25194 -0.002,0.36589 -2.24736,3.00387 -5.29042,6.21496 -3.41089,3.59924 -3.62922,3.84739 -4.09297,4.65201 -0.21384,0.37103 -0.75783,0.72901 -1.20885,0.7955 -0.8933,0.1317 -2.21448,0.87335 -3.37421,1.89413 -0.40619,0.35753 -1.09794,0.71926 -1.53722,0.80386 -0.43927,0.0846 -1.32665,0.55652 -1.97195,1.04871 -0.6453,0.4922 -1.35787,0.8949 -1.58349,0.8949 -1.14648,0 -4.20895,1.14839 -3.99325,1.49741 0.15056,0.24361 0.0327,0.30728 -0.31904,0.17232 -0.34159,-0.13108 -0.64674,0.0166 -0.78715,0.38102 -0.21491,0.5577 -0.25038,0.55756 -0.56466,-0.002 -0.31261,-0.55678 -0.43663,-0.55132 -1.82837,0.0804 -0.82115,0.37275 -1.92467,0.68122 -2.45228,0.68549 -0.5276,0.004 -1.61972,0.35199 -2.42693,0.77273 -0.80722,0.42074 -1.88367,0.81053 -2.39212,0.8662 -1.96082,0.21467 -4.5509,0.53333 -6.92167,0.85158 -1.35819,0.18233 -3.48961,0.42059 -4.73647,0.52947 -1.24687,0.10889 -2.37567,0.26511 -2.50844,0.34716 -0.13277,0.0821 -0.35406,0.0365 -0.49175,-0.10116 z m 25.73964,-8.69423 c 0.96392,-0.27341 2.69298,-0.76181 3.84235,-1.08535 3.83726,-1.08013 8.57639,-3.70995 8.09353,-4.49123 -0.1411,-0.22831 -0.0753,-0.28467 0.16158,-0.13829 0.40066,0.24762 2.53151,-1.0951 2.53151,-1.5952 0,-0.14639 -0.67469,-0.31497 -1.49931,-0.37463 -1.04747,-0.0758 -1.46838,-0.25442 -1.39669,-0.59273 0.0656,-0.30955 -0.095,-0.40842 -0.44515,-0.27405 -0.79841,0.30637 -2.29611,-0.48389 -2.3474,-1.23861 -0.0873,-1.28416 -0.14102,-1.41774 -0.74965,-1.86278 -0.33955,-0.24829 -0.61736,-0.61154 -0.61736,-0.80723 0,-0.2092 -0.60301,-0.28615 -1.46359,-0.18674 l -1.46359,0.16906 0.19645,-1.21059 c 0.18795,-1.15818 0.14821,-1.2126 -0.91766,-1.2568 -1.94404,-0.0806 -2.70161,-0.22316 -2.70161,-0.50833 0,-0.15245 -0.3175,-0.27718 -0.70555,-0.27718 -1.00511,0 -0.87397,-0.6746 0.38331,-1.97179 l 1.08887,-1.12343 -1.61803,0.18238 c -1.07525,0.12119 -1.61804,0.0486 -1.61804,-0.21628 0,-0.21926 -0.32309,-0.39866 -0.71797,-0.39866 -0.63062,0 -0.66739,-0.0945 -0.30219,-0.77689 0.31147,-0.58198 0.31403,-0.8108 0.0102,-0.91207 -0.22306,-0.0744 -0.31731,-0.27799 -0.20944,-0.45252 0.11011,-0.17817 -0.27531,-0.22305 -0.87887,-0.10234 -1.33582,0.26716 -2.08893,-0.308 -1.87419,-1.43136 0.11586,-0.60608 -0.0494,-0.96173 -0.57851,-1.24489 -0.40741,-0.21803 -0.74073,-0.31146 -0.74073,-0.20762 0,0.10384 -0.3175,-0.1287 -0.70555,-0.51675 -0.38806,-0.38806 -0.86431,-0.70556 -1.05834,-0.70556 -0.55636,0 -0.41095,-1.05815 0.17639,-1.28354 0.29104,-0.11168 0.52917,-0.36943 0.52917,-0.57277 0,-0.20334 -0.27781,-0.13111 -0.61736,0.16051 -0.92059,0.79065 -1.88611,1.0484 -2.38288,0.63612 -0.32587,-0.27045 -0.50701,-0.15665 -0.69225,0.43488 l -0.25088,0.80119 -0.28621,-0.88194 c -0.23321,-0.71863 -0.29272,-0.75309 -0.32137,-0.18609 -0.0333,0.65917 -0.0641,0.65452 -0.58433,-0.0882 -0.30205,-0.43122 -0.77527,-0.78405 -1.05161,-0.78405 -0.27635,0 -0.60019,-0.38945 -0.71966,-0.86544 -0.29548,-1.17731 -2.92713,-1.63779 -4.39719,-0.7694 -0.53677,0.31708 -1.22927,0.57651 -1.53889,0.57651 -0.30961,0 -0.56293,0.0664 -0.56293,0.14753 0,0.0811 -0.0964,0.39865 -0.21413,0.70556 -0.16151,0.4209 0.0118,0.55802 0.70556,0.55802 0.98819,0 1.20149,0.61758 0.47871,1.3861 -0.36274,0.3857 -0.26565,0.42751 0.54727,0.23568 0.97067,-0.22905 0.98402,-0.21074 0.75122,1.03018 -0.22993,1.22564 -0.20939,1.25645 0.68746,1.03136 1.07949,-0.27094 1.11596,-0.13804 0.36217,1.31965 l -0.56231,1.08737 0.9597,-0.24086 c 0.77727,-0.19509 0.9198,-0.13688 0.74977,0.30621 -0.24213,0.63098 0.48929,0.74294 1.06865,0.16357 0.25665,-0.25664 0.457,-0.26463 0.60563,-0.0241 0.12216,0.19766 -0.13337,0.60837 -0.56785,0.91268 -0.74397,0.5211 -0.74925,0.55331 -0.0908,0.55331 0.72535,0 1.70277,1.16522 1.30831,1.55967 -0.34309,0.3431 -0.4134,1.26255 -0.0965,1.26255 0.15423,0 0.36345,0.3175 0.46493,0.70556 0.10824,0.41391 0.48119,0.70555 0.90226,0.70555 0.39477,0 0.81588,0.15875 0.9358,0.35278 0.11991,0.19403 0.0305,0.35278 -0.19877,0.35278 -0.29843,0 -0.28331,0.16083 0.0532,0.56635 0.70715,0.85206 4.21829,0.3643 6.74084,-0.93642 2.12578,-1.09614 2.91427,-0.94112 1.58153,0.31092 -0.71698,0.67357 -5.74201,2.52858 -6.84965,2.52858 -0.61521,0 -0.56022,0.58595 0.078,0.83085 0.32547,0.1249 0.43566,0.42897 0.29153,0.80454 -0.17847,0.4651 -0.093,0.55056 0.37208,0.37209 0.66065,-0.25352 1.2743,0.71715 0.70486,1.11493 -0.18029,0.12594 -0.30264,0.42742 -0.2719,0.66995 0.0308,0.24254 0.0757,0.6791 0.1,0.97014 0.053,0.63628 1.09022,0.71716 1.13109,0.0882 0.0158,-0.24254 0.23836,0.0353 0.49468,0.61736 0.25632,0.58208 0.6403,1.07818 0.85329,1.10243 0.213,0.0243 0.62041,0.0639 0.90536,0.0882 0.28495,0.0243 0.45696,0.24254 0.38224,0.48507 -0.62204,2.01912 -0.57221,2.38125 0.32766,2.38125 0.92801,0 1.20895,0.51752 0.4477,0.8247 -0.24254,0.0979 -0.11025,0.19047 0.29398,0.20578 1.01045,0.0383 1.24304,0.35654 0.82772,1.13257 -0.31155,0.58214 -0.21601,0.65918 0.81748,0.65918 0.64364,0 1.95891,-0.2237 2.92282,-0.4971 z m -6.5377,-11.9495 c 0,-0.24868 0.69073,-0.6561 1.53494,-0.90536 0.84422,-0.24927 1.97909,-0.68364 2.52193,-0.96527 1.08432,-0.56255 1.4289,-0.45576 1.12072,0.34733 -0.11068,0.28843 -1.25826,0.8509 -2.55019,1.24994 -2.77663,0.85761 -2.6274,0.84209 -2.6274,0.27336 z m -55.91527,8.04781 c -0.67493,-0.55323 -0.86542,-0.8721 -0.52584,-0.8802 0.67948,-0.0162 1.52435,-1.31011 1.04778,-1.60465 -0.40203,-0.24847 -0.47324,-1.94112 -0.081,-1.9248 0.14552,0.006 0.89958,0.40212 1.67569,0.88014 1.92361,1.18478 2.30089,1.09434 0.94892,-0.22745 -1.17813,-1.15184 -1.5169,-2.20294 -0.59614,-1.84961 0.29104,0.11169 0.52917,0.0217 0.52917,-0.19987 0,-0.29361 0.19142,-0.30049 0.70555,-0.0253 0.70855,0.37921 1.04781,-0.0996 0.36819,-0.51964 -0.18556,-0.11468 -0.24795,-0.44155 -0.13865,-0.72638 0.1093,-0.28483 0.023,-0.51787 -0.19179,-0.51787 -0.21479,0 -0.39052,-0.15478 -0.39052,-0.34396 0,-0.19681 0.49048,-0.25231 1.14652,-0.12973 0.94539,0.17663 1.06917,0.13176 0.70556,-0.25577 -0.66636,-0.7102 -0.52864,-1.10617 0.24139,-0.69406 1.11027,0.5942 1.391,0.42902 1.24407,-0.73201 -0.12688,-1.00252 -0.0638,-1.08284 0.73124,-0.93086 0.60635,0.11591 0.8701,0.009 0.8701,-0.35318 0,-0.40774 0.28003,-0.46697 1.3016,-0.27533 1.15565,0.21681 1.25012,0.18216 0.84248,-0.30902 -0.49048,-0.59098 -0.25035,-1.79995 0.29104,-1.46535 0.17789,0.10994 0.58304,0.10027 0.90034,-0.0215 0.50723,-0.19465 0.48977,-0.28241 -0.14456,-0.72671 -0.91259,-0.6392 -0.92605,-1.17087 -0.0296,-1.17087 0.3805,0 1.00334,-0.33439 1.3841,-0.74307 0.38075,-0.4087 0.83427,-0.65532 1.00782,-0.54807 0.17354,0.10726 0.53133,-0.10439 0.79508,-0.47032 0.34817,-0.48306 0.77654,-0.62048 1.56357,-0.5016 0.9957,0.1504 1.02102,0.13065 0.31084,-0.24244 -1.0068,-0.52892 -1.33423,-1.37155 -0.53867,-1.38628 0.33346,-0.006 0.90329,-0.23614 1.26631,-0.51105 0.52208,-0.39538 0.6109,-0.76167 0.42498,-1.75267 -0.25091,-1.3375 -0.15757,-1.44211 0.82002,-0.91892 0.51537,0.27582 0.70778,0.1202 1.10589,-0.89444 0.42651,-1.087 0.59357,-1.20384 1.45185,-1.01533 0.95157,0.20901 0.96356,0.19097 0.63481,-0.95531 -0.1843,-0.64259 -0.33508,-1.20908 -0.33508,-1.25887 0,-0.0498 -0.43151,-0.0905 -0.95891,-0.0905 -0.56167,0 -1.25585,-0.33893 -1.6757,-0.81816 -0.6631,-0.75689 -1.23713,-1.10184 -2.12789,-1.27873 -0.19403,-0.0385 -0.5975,-0.29152 -0.8966,-0.5622 -0.38134,-0.34511 -1.16038,-0.44725 -2.60743,-0.34188 -1.13499,0.0827 -2.35871,-0.008 -2.71938,-0.20068 -0.51542,-0.27584 -0.65576,-0.22697 -0.65576,0.22837 0,0.37002 -0.19118,0.50596 -0.52917,0.37626 -0.32233,-0.12369 -0.52916,-7e-4 -0.52916,0.31503 0,0.61332 -0.0409,0.6192 -1.21176,0.17405 -0.77018,-0.29282 -0.90491,-0.24642 -0.90491,0.31164 0,0.36062 -0.3175,0.7387 -0.70556,0.84018 -0.38805,0.10148 -0.70555,0.0505 -0.70555,-0.11332 0,-0.1638 -0.27781,-0.30097 -0.61736,-0.30482 -0.33955,-0.004 -1.23275,-0.099 -1.98488,-0.21153 -1.23238,-0.18433 -1.34959,-0.13598 -1.18607,0.48933 0.12807,0.48973 0.0115,0.68222 -0.39637,0.65426 -1.23503,-0.0847 -2.44057,0.46041 -2.63129,1.18971 -0.11293,0.43186 -0.39532,0.68082 -0.65951,0.58144 -0.25411,-0.0956 -0.85765,-0.29785 -1.3412,-0.44948 -0.79219,-0.24841 -0.83084,-0.21745 -0.3907,0.31289 0.63533,0.76553 0.22668,1.16969 -0.53954,0.53361 -0.86515,-0.71821 -2.24752,-0.66353 -2.24752,0.0889 0,0.33711 -0.15875,0.71105 -0.35278,0.83096 -0.19403,0.11992 -0.35278,0.0253 -0.35278,-0.21024 0,-0.27041 -0.25188,-0.20033 -0.68333,0.19012 -0.37582,0.34013 -0.85207,0.51411 -1.05833,0.38664 -0.22017,-0.13607 -0.37501,0.0797 -0.37501,0.52264 0,0.66592 -0.13447,0.72582 -1.14652,0.51072 -0.63059,-0.13402 -1.39716,-0.46414 -1.70348,-0.73358 -0.70687,-0.62179 -1.15983,-0.63009 -0.92454,-0.0169 0.0998,0.26014 0.049,0.68731 -0.11289,0.94928 -0.17459,0.28249 -0.0871,0.87709 0.21493,1.46121 0.52593,1.01704 5.35337,5.93599 5.82556,5.93599 0.14629,0 0.51546,0.24946 0.82036,0.55436 0.61294,0.61294 0.73645,0.27328 0.20158,-0.55436 -0.18808,-0.29105 -0.35446,-0.37042 -0.36973,-0.17639 -0.0153,0.19403 -0.17676,-0.0191 -0.35887,-0.47355 -0.57361,-1.43156 -0.0335,-1.43788 1.47488,-0.0173 0.80168,0.75501 1.58538,1.37276 1.74157,1.37276 0.15619,0 0.49376,0.20598 0.75015,0.45774 0.79068,0.77639 3.71051,2.69237 4.76101,3.12414 1.63412,0.67166 0.023,0.80389 -1.92727,0.15817 l -1.66201,-0.55029 0.82066,0.68831 c 1.18608,0.9948 0.65932,1.52552 -0.87701,0.8836 -0.68934,-0.28802 -1.38435,-0.44269 -1.54449,-0.34372 -0.16014,0.099 -0.50288,-0.10052 -0.76164,-0.44332 -0.25877,-0.34279 -0.78557,-0.79931 -1.17067,-1.01449 -0.3851,-0.21517 -0.64979,-0.51509 -0.58819,-0.66649 0.0616,-0.1514 -0.35387,-0.5009 -0.92325,-0.77666 -0.56937,-0.27575 -1.21168,-0.88864 -1.42734,-1.36197 -0.21566,-0.47332 -0.63364,-0.86059 -0.92884,-0.86059 -0.2952,0 -0.53673,-0.1344 -0.53673,-0.29867 0,-0.16426 -0.52013,-0.83895 -1.15583,-1.4993 -0.63571,-0.66036 -1.54269,-1.75627 -2.01552,-2.43537 -1.10885,-1.59257 -1.75772,-2.09159 -2.73768,-2.10545 -0.43656,-0.006 -0.79375,-0.16996 -0.79375,-0.36399 0,-0.19403 -0.14111,-0.35278 -0.31358,-0.35278 -0.17247,0 -0.29153,0.27781 -0.26458,0.61736 0.0375,0.47188 -0.17963,0.59343 -0.92115,0.51582 -0.68179,-0.0714 -0.97014,0.0597 -0.97014,0.44097 0,0.70412 -0.30568,0.68506 -1.20086,-0.0748 -0.66341,-0.56317 -0.68615,-0.56421 -0.25901,-0.0119 0.79578,1.02905 0.29097,1.45045 -0.75342,0.62894 l -0.96171,-0.75649 v 0.95411 c 0,2.62967 3.7154,6.62371 11.46528,12.32513 0.77611,0.57097 1.71886,1.32074 2.09499,1.66616 0.37614,0.34542 0.79815,0.62803 0.9378,0.62803 0.13966,0 1.13089,0.71438 2.20275,1.5875 1.07185,0.87313 2.07859,1.59562 2.23719,1.60554 0.15861,0.01 1.08213,0.55425 2.05227,1.20962 2.06297,1.39363 2.94015,1.62411 1.41111,0.37078 z m -6.70278,-17.82621 c -0.11992,-0.19403 0.0388,-0.35278 0.35278,-0.35278 0.31394,0 0.47269,0.15875 0.35278,0.35278 -0.11992,0.19402 -0.27867,0.35277 -0.35278,0.35277 -0.0741,0 -0.23286,-0.15875 -0.35278,-0.35277 z m 47.09583,-7.65086 c 1.06715,-0.29352 3.21028,-1.1856 4.7625,-1.98239 7.87959,-4.04477 9.10971,-9.2225 3.59918,-15.14939 -1.21769,-1.309687 -2.42343,-2.381247 -2.67942,-2.381247 -0.256,0 -1.04392,-0.4418 -1.75094,-0.98178 -2.36244,-1.80429 -5.95736,-3.35858 -7.27391,-3.14493 -0.84831,0.13766 -1.24479,0.0461 -1.3852,-0.31978 -0.15411,-0.4016 -0.90519,-0.50386 -3.46711,-0.47207 -3.96559,0.0492 -5.59559,0.36619 -9.2676,1.80222 -2.94296,1.15092 -4.2048,1.97735 -6.66994,4.36842 -2.21762,2.150987 -2.81421,3.667657 -2.5308,6.433927 0.49935,4.87395 2.19714,6.60427 10.91268,11.12186 2.91861,1.51283 11.42893,1.89384 15.75056,0.70516 z m 0.17889,-5.75066 c -0.1236,-0.19998 0.018,-0.25911 0.33195,-0.13864 0.61116,0.23452 0.72298,0.48738 0.21554,0.48738 -0.18258,0 -0.42895,-0.15693 -0.54749,-0.34874 z m -9.66628,-5.77956 c -0.22813,-0.27487 -0.49592,-1.27065 -0.59509,-2.21282 -0.22457,-2.1337 0.38857,-3.4348 1.69009,-3.58643 1.1038,-0.12859 1.84005,0.81713 2.18928,2.81211 0.18317,1.04641 0.0735,1.45944 -0.57777,2.17636 -1.02098,1.12386 -2.16281,1.46591 -2.70651,0.81078 z m 2.07906,-2.13312 c 0,-0.63766 -0.54296,-1.26358 -1.09608,-1.26358 -0.43263,0 -0.66781,0.24848 -0.66781,0.70555 0,0.51741 0.23518,0.70556 0.88194,0.70556 0.48507,0 0.88195,-0.0664 0.88195,-0.14753 z m 21.48848,-4.343987 c 0.30976,-0.24033 0.99376,-0.34606 1.53027,-0.23655 0.73243,0.1495 0.97013,0.0615 0.97013,-0.35918 0,-0.48238 0.84985,-0.75722 1.85209,-0.59897 0.14552,0.023 0.26458,-0.11697 0.26458,-0.311 0,-0.47055 0.96578,-0.45404 1.12353,0.0192 0.0682,0.2046 0.39434,0.41167 0.72475,0.46016 0.33041,0.0485 0.71117,0.1986 0.84614,0.33357 0.13497,0.13497 0.40944,0.2454 0.60993,0.2454 0.2182,0 0.1946,-0.16994 -0.0588,-0.42334 -0.59396,-0.59395 -0.53516,-1.45895 0.083,-1.22173 0.2785,0.10688 0.57019,0.005 0.64818,-0.22684 0.10732,-0.31871 0.27613,-0.31031 0.69404,0.0345 0.4513,0.37241 0.58232,0.37241 0.71684,0 0.13303,-0.36829 0.30877,-0.37054 0.91625,-0.0118 0.63103,0.37272 0.75165,0.35857 0.75165,-0.0882 0,-0.69988 0.66694,-0.67645 1.47152,0.0517 0.60194,0.54474 0.64514,0.54198 0.64514,-0.0412 0,-0.4513 0.19608,-0.57371 0.70556,-0.44048 0.38805,0.10148 0.70555,0.0406 0.70555,-0.13524 0,-0.17587 0.21648,-0.31975 0.48106,-0.31975 0.26459,0 0.88553,-0.40447 1.37987,-0.89881 0.54706,-0.54706 0.98821,-0.75415 1.12726,-0.52917 0.33408,0.54055 0.89237,0.45123 0.89237,-0.14276 0,-0.37118 0.31155,-0.47298 1.13035,-0.36936 0.62169,0.0787 1.33607,-0.0277 1.5875,-0.23634 0.33271,-0.27612 0.45715,-0.25985 0.45715,0.0598 0,0.3445 0.11073,0.34727 0.51371,0.0128 0.28254,-0.23449 0.67942,-0.32393 0.88195,-0.19876 0.20252,0.12517 0.36823,-0.0199 0.36823,-0.32241 0,-0.30249 0.15875,-0.54999 0.35277,-0.54999 0.19403,0 0.35278,-0.23812 0.35278,-0.52916 0,-0.68003 0.0799,-0.67039 1.62194,0.19572 0.81457,0.45752 1.22138,0.55511 1.1029,0.26459 -0.10324,-0.25317 -0.28913,-0.71163 -0.41309,-1.0188 -0.18325,-0.45409 -0.0239,-0.52892 0.85242,-0.4003 0.59279,0.087 1.1646,0.29864 1.27069,0.47029 0.10609,0.17166 0.32556,0.31211 0.4877,0.31211 0.86391,0 -1.23954,-4.48017 -3.57821,-7.62128 -2.86308,-3.84545 -4.33531,-5.44224 -4.83937,-5.24881 -0.29723,0.11406 -0.43574,0.1027 -0.30779,-0.0253 0.26749,-0.26749 -0.12988,-0.79836 -1.78305,-2.38209 -2.84321,-2.72378 -3.33301,-3.10435 -3.77642,-2.9342 -0.25845,0.0992 -0.5397,-0.009 -0.62499,-0.24083 -0.11917,-0.32361 -0.26141,-0.32096 -0.61413,0.0114 -0.32263,0.30404 -0.59079,0.32323 -0.90243,0.0646 -0.32119,-0.26656 -0.64935,-0.16204 -1.19061,0.37921 -0.51026,0.51026 -0.99319,0.67823 -1.52291,0.52967 -0.59332,-0.1664 -0.65369,-0.13368 -0.25675,0.13916 0.53736,0.36936 0.2611,0.92423 -0.46016,0.92423 -0.22636,0 -0.56828,0.35719 -0.75981,0.79375 -0.19153,0.43657 -0.5267,0.79375 -0.74483,0.79375 -0.2328,0 -0.32696,0.36423 -0.22799,0.88195 0.15163,0.79321 0.0542,0.88194 -0.96861,0.88194 -0.85684,0 -1.08803,0.12816 -0.93772,0.51984 0.10971,0.28591 -0.0524,0.66082 -0.36034,0.83312 -0.38469,0.21529 -0.43529,0.39026 -0.16174,0.55932 0.74457,0.46017 0.40118,0.8774 -0.92484,1.1237 -0.73343,0.13623 -1.65636,0.6313 -2.07125,1.11103 -0.62487,0.72255 -0.86841,0.80105 -1.47611,0.47582 -0.90702,-0.48543 -1.59258,-0.50474 -1.30333,-0.0367 0.11992,0.19403 0.0182,0.35278 -0.22612,0.35278 -0.34546,0 -0.35008,0.0941 -0.0208,0.42333 0.58143,0.58143 0.53659,2.04612 -0.0626,2.04612 -0.74036,0 -1.42495,0.94253 -0.85166,1.17256 0.25063,0.10056 0.0985,0.19538 -0.33806,0.21069 -0.43656,0.0153 -0.79375,0.24773 -0.79375,0.51645 0,0.26872 -0.40932,0.75679 -0.90961,1.08459 -0.56157,0.36796 -0.83202,0.79821 -0.70682,1.12447 0.35608,0.92798 -0.44294,1.88848 -1.57098,1.88848 -0.69453,0 -1.04593,0.17779 -1.04593,0.52917 0,0.29104 -0.24882,0.52917 -0.55294,0.52917 -0.3924,0 -0.48792,0.20485 -0.329,0.70555 0.12846,0.40475 0.0634,0.70556 -0.15262,0.70556 -0.89301,0 -0.22836,1.15018 1.76935,3.06182 2.29019,2.191517 2.90777,2.513747 3.64508,1.901837 0.34644,-0.28752 0.5868,-0.23999 0.94029,0.18595 0.37859,0.45616 0.50699,0.47493 0.63321,0.0925 0.0871,-0.26381 0.41038,-0.675207 0.71845,-0.914227 z m 8.78426,-8.80224 c 0.25466,-0.10191 0.55893,-0.0894 0.67616,0.0278 0.11722,0.11723 -0.0911,0.2006 -0.46303,0.18529 -0.41096,-0.0169 -0.49455,-0.10052 -0.21313,-0.21314 z m 1.47725,-1.80854 c 0,-0.18944 0.25139,-0.4409 0.55865,-0.55881 0.34357,-0.13184 0.50485,-0.053 0.41892,0.20479 -0.17578,0.52735 -0.97757,0.8177 -0.97757,0.35402 z m 0.35278,-11.02408 c 0,-0.20547 0.15875,-0.27548 0.35278,-0.15556 0.19403,0.11991 0.35278,0.28803 0.35278,0.3736 0,0.0856 -0.15875,0.15556 -0.35278,0.15556 -0.19403,0 -0.35278,-0.16812 -0.35278,-0.3736 z m 3.89526,0.0208 c -0.0369,-0.097 -0.13925,-0.56987 -0.2274,-1.05079 -0.1185,-0.64651 -0.0571,-0.7712 0.23569,-0.47845 0.21777,0.21778 0.3201,0.69063 0.2274,1.05079 -0.0927,0.36016 -0.19876,0.57546 -0.23569,0.47845 z m -2.42845,-1.05834 c 0,-0.48507 0.0801,-0.6835 0.17794,-0.44097 0.0979,0.24254 0.0979,0.63941 0,0.88194 -0.0979,0.24254 -0.17794,0.0441 -0.17794,-0.44097 z m 3.1193,-0.35278 c 0,-0.19402 0.16812,-0.35277 0.3736,-0.35277 0.20548,0 0.27549,0.15875 0.15557,0.35277 -0.11992,0.19403 -0.28804,0.35278 -0.3736,0.35278 -0.0856,0 -0.15557,-0.15875 -0.15557,-0.35278 z m -51.55073,17.15963 c 1.07055,-0.20327 1.14182,-0.16836 0.71248,0.34897 -0.4302,0.51836 -0.35645,0.55083 0.75073,0.33051 1.23923,-0.2466 2.75328,-0.72448 4.05003,-1.27831 0.38805,-0.16574 1.73049,-0.60516 2.9832,-0.97651 1.2527,-0.37134 2.3375,-0.85472 2.41064,-1.07417 0.0731,-0.21945 -0.039,-0.399 -0.24917,-0.399 -0.21019,0 -0.38217,-0.23813 -0.38217,-0.52917 0,-0.29117 0.31235,-0.52917 0.69448,-0.52917 0.47238,0 0.62954,-0.16923 0.49142,-0.52916 -0.13477,-0.35122 0.0173,-0.5338 0.45205,-0.54294 0.43051,-0.009 0.1411,-0.32368 -0.8442,-0.91776 -1.603,-0.96652 -1.81807,-1.34011 -0.96083,-1.66906 0.41239,-0.15825 0.20205,-0.51058 -0.89827,-1.50466 -0.79909,-0.72194 -1.35614,-1.50811 -1.25511,-1.77139 0.11404,-0.29717 -0.0768,-0.47336 -0.51284,-0.47336 -0.78201,0 -0.98651,-1.23448 -0.25351,-1.53025 0.24254,-0.0979 0.004,-0.19047 -0.52917,-0.20579 -0.53357,-0.0153 -0.98378,-0.14691 -1.00045,-0.29243 -0.20545,-1.79322 -0.14904,-2.77945 0.17119,-2.99321 0.23963,-0.15995 0.15192,-0.26125 -0.22907,-0.26459 -0.5513,-0.005 -0.77564,-0.39123 -0.66265,-1.14139 0.021,-0.13973 -0.26475,-0.41622 -0.6351,-0.61443 -0.37035,-0.19821 -0.77599,-0.8276 -0.90142,-1.39866 -0.17122,-0.77958 -0.48501,-1.09472 -1.25935,-1.2648 -1.31194,-0.28815 -1.61197,-0.76048 -0.67247,-1.05866 0.71148,-0.22582 0.70669,-0.25322 -0.18945,-1.08373 -0.50566,-0.46863 -1.06995,-0.85206 -1.25398,-0.85206 -0.18403,0 -0.33461,-0.15875 -0.33461,-0.35278 0,-0.57098 -0.71406,-0.42726 -5.00914,1.00816 -6.32908,2.11518 -12.75705,5.80355 -17.22296,9.88251 -1.1233,1.02598 -1.75678,1.35825 -1.75678,0.92145 0,-0.84738 8.3274,-7.22601 9.43366,-7.22601 0.24426,0 0.44411,-0.13525 0.44411,-0.30055 0,-0.71562 10.2665,-4.70646 13.39393,-5.20656 0.78251,-0.12513 1.42274,-0.3502 1.42274,-0.50015 0,-0.14996 0.59531,-0.43786 1.32292,-0.63979 1.2338,-0.34242 1.18803,-0.35609 -0.67948,-0.20293 -2.0628,0.16917 -2.8969,-0.23861 -1.79739,-0.87872 0.50008,-0.29113 0.32332,-0.36587 -0.88559,-0.37446 -1.63956,-0.0116 -2.25423,-0.67526 -1.48451,-1.60272 0.23949,-0.28857 0.29694,-0.53539 0.12766,-0.54848 -0.16928,-0.0131 -0.8634,-0.11108 -1.5425,-0.21774 -1.67245,-0.26267 -2.06722,-0.23737 -3.70417,0.23741 -0.77611,0.22511 -2.24454,0.57203 -3.26319,0.77094 -1.01865,0.19891 -1.85208,0.50463 -1.85208,0.67937 0,0.17475 -0.24445,0.31772 -0.54322,0.31772 -0.69607,0 -3.01622,1.1754 -5.31413,2.69217 -0.99022,0.65361 -1.96846,1.18838 -2.17387,1.18838 -0.46397,0 -5.11718,2.64111 -6.78545,3.85134 -1.99834,1.44968 -6.8787,6.10328 -6.88448,6.56459 -0.003,0.23351 -0.2208,0.6842 -0.48417,1.00153 -0.5777,0.69609 -0.1092,0.74104 0.77046,0.0739 0.67265,-0.51012 2.01208,-0.35755 2.01208,0.22919 0,0.19215 0.22469,0.26315 0.49932,0.15777 0.27462,-0.10539 0.91343,-0.0809 1.41956,0.0545 l 0.92024,0.24612 -1.61583,1.71054 c -1.56848,1.66042 -2.03723,2.79945 -0.53304,1.29527 0.76738,-0.76738 2.46115,-1.56762 2.73608,-1.29269 0.0844,0.0844 -0.10947,0.66195 -0.43084,1.28342 -0.61154,1.18259 -0.58862,1.18304 1.23784,0.0243 0.81139,-0.51476 1.56979,-0.6022 3.83556,-0.44223 0.70195,0.0496 0.76611,0.14445 0.39778,0.58826 -0.51455,0.61999 -0.36793,0.65159 0.85898,0.18512 0.77623,-0.29512 0.90491,-0.24792 0.90491,0.33196 0,0.3718 -0.15875,0.77412 -0.35278,0.89404 -0.85451,0.52811 -0.24915,0.84647 0.68803,0.36183 0.57245,-0.29602 1.54439,-0.53822 2.15987,-0.53822 1.00602,0 1.07014,0.0601 0.63488,0.59521 -0.43098,0.52983 -0.40666,0.5636 0.22138,0.30741 1.11068,-0.45305 2.29306,-0.65509 2.29306,-0.39181 0,0.13216 -0.48296,0.64667 -1.07323,1.14336 -1.37914,1.16046 -1.18729,1.32162 0.56331,0.47318 0.76552,-0.37102 2.00389,-0.78413 2.75194,-0.91803 1.2939,-0.23161 1.34109,-0.20801 0.97013,0.48514 -0.53251,0.99502 -0.49832,1.09005 0.31563,0.8772 0.41008,-0.10724 0.70555,-0.0108 0.70555,0.23024 0,0.23212 0.19417,0.30286 0.44098,0.16064 0.24253,-0.13975 0.0838,0.13892 -0.35278,0.61928 -0.43657,0.48036 -0.79375,0.98779 -0.79375,1.12763 0,0.13984 0.35718,0.0545 0.79375,-0.18959 0.43656,-0.24411 1.11125,-0.46549 1.4993,-0.49195 0.38806,-0.0265 0.96288,-0.15894 1.2774,-0.2944 0.72539,-0.31242 1.18999,0.74664 0.62577,1.42648 -0.51434,0.61974 -0.0325,0.60007 1.09544,-0.0447 1.16386,-0.66531 1.53444,-0.65384 1.26847,0.0393 -0.15609,0.40676 -0.0665,0.51025 0.31503,0.36385 0.63914,-0.24526 0.72331,0.3296 0.0922,0.62972 -0.24253,0.11534 -0.0685,0.13942 0.38681,0.0535 0.90252,-0.17028 1.81805,0.0726 1.81805,0.48224 0,0.14213 -0.41739,0.44859 -0.92753,0.68102 -0.51014,0.23244 -0.85038,0.49976 -0.75609,0.59405 0.0943,0.0943 0.86886,-0.22724 1.72128,-0.71452 1.78605,-1.02097 2.23569,-1.10604 1.95306,-0.36951 -0.11079,0.28872 -0.0881,0.50804 0.0505,0.48739 0.7553,-0.11258 0.82,0.1253 0.21837,0.8029 -0.66313,0.74685 -0.66268,0.75219 0.0335,0.40246 0.38806,-0.19493 1.24085,-0.45605 1.8951,-0.58028 z m -21.8153,-10.17144 c -0.006,-0.3281 0.14616,-0.69413 0.33914,-0.8134 0.19298,-0.11927 0.53106,-0.5652 0.75128,-0.99096 0.33394,-0.64561 0.22185,-0.60663 -0.67531,0.23488 -0.59165,0.55494 -1.26516,0.94584 -1.4967,0.86866 -0.54954,-0.18318 3.19267,-3.63786 5.85453,-5.4047 2.36133,-1.56735 7.84323,-4.34456 10.73754,-5.43977 2.22387,-0.84152 2.11667,-0.81781 2.11667,-0.46818 0,0.14651 -0.96223,0.63949 -2.13828,1.09551 -1.17605,0.45603 -2.06278,0.90465 -1.97049,0.99693 0.0923,0.0923 0.48844,-0.004 0.88036,-0.21357 0.39192,-0.20975 1.00083,-0.37062 1.35313,-0.35749 0.49167,0.0184 0.43556,0.1161 -0.24139,0.42062 -2.12323,0.95515 -4.14695,1.95832 -5.29166,2.62311 -0.6791,0.39438 -1.86973,1.0859 -2.64584,1.53669 -1.83012,1.06302 -5.57277,3.84923 -5.89497,4.38851 -0.13779,0.23062 -0.56907,0.8019 -0.9584,1.26951 -0.56899,0.68337 -0.71018,0.73314 -0.71961,0.25365 z m 5.96578,-5.63213 c 0.98509,-0.61236 1.7273,-1.17716 1.64936,-1.2551 -0.15253,-0.15254 -3.74632,1.97934 -3.74632,2.22236 0,0.28419 0.32488,0.13433 2.09696,-0.96726 z m 4.77971,-2.76313 c 0.12359,-0.19997 -0.018,-0.25911 -0.33196,-0.13864 -0.61116,0.23452 -0.72298,0.48738 -0.21553,0.48738 0.18257,0 0.42894,-0.15693 0.54749,-0.34874 z m 68.97054,73.352917 c 0,-0.20548 0.15875,-0.27549 0.35278,-0.15557 0.19403,0.11992 0.35278,0.28804 0.35278,0.3736 0,0.0856 -0.15875,0.15557 -0.35278,0.15557 -0.19403,0 -0.35278,-0.16812 -0.35278,-0.3736 z m 0.35278,-1.20283 c 0,-0.31559 0.20683,-0.43873 0.52917,-0.31504 0.29104,0.11169 0.52916,0.34483 0.52916,0.5181 0,0.17327 -0.23812,0.31503 -0.52916,0.31503 -0.29105,0 -0.52917,-0.23314 -0.52917,-0.51809 z m 18.43943,-11.09691 c 0.0303,-0.40272 0.2595,-0.73222 0.50925,-0.73222 0.60382,0 0.57641,0.51765 -0.0552,1.04181 -0.41735,0.34637 -0.4993,0.29051 -0.45409,-0.30959 z m -2.75982,-0.0574 c -0.13036,-0.21094 -0.094,-0.52655 0.0808,-0.70135 0.1886,-0.18861 0.33932,-0.0327 0.37067,0.38351 0.059,0.78309 -0.0964,0.89244 -0.45148,0.31784 z m 3.53227,-1.05107 c -0.12789,-0.20693 -0.15998,-0.4488 -0.0713,-0.53747 0.24605,-0.24605 1.32054,0.24108 1.32054,0.59869 0,0.4416 -0.96778,0.39418 -1.24923,-0.0612 z m -3.33688,-1.38764 c 0,-0.19403 0.15875,-0.35278 0.35278,-0.35278 0.19402,0 0.35277,0.15875 0.35277,0.35278 0,0.19403 -0.15875,0.35278 -0.35277,0.35278 -0.19403,0 -0.35278,-0.15875 -0.35278,-0.35278 z m 7.40833,-0.49142 c 0,-0.0763 0.24637,-0.23319 0.54749,-0.34874 0.31394,-0.12047 0.45555,-0.0613 0.33196,0.13865 -0.20717,0.33521 -0.87945,0.49581 -0.87945,0.21009 z m -11.80928,-2.66938 c -0.29918,-0.48409 -0.0343,-0.8475 0.48704,-0.66831 0.21352,0.0734 0.24081,0.32245 0.0662,0.60358 -0.22049,0.35489 -0.36352,0.37162 -0.55319,0.0647 z m 8.63428,-2.68085 c 0,-0.30249 0.16134,-0.45027 0.35853,-0.3284 0.19719,0.12187 0.2672,0.36936 0.15557,0.54999 -0.30241,0.48931 -0.5141,0.39807 -0.5141,-0.22159 z m 6.22243,-1.74307 c 0.11168,-0.29104 0.34482,-0.52917 0.51809,-0.52917 0.17327,0 0.31504,0.23813 0.31504,0.52917 0,0.29104 -0.23315,0.52917 -0.5181,0.52917 -0.31559,0 -0.43873,-0.20683 -0.31503,-0.52917 z m -9.39743,-0.88194 c 0,-0.19403 0.23813,-0.35278 0.52917,-0.35278 0.29104,0 0.52916,0.15875 0.52916,0.35278 0,0.19402 -0.23812,0.35277 -0.52916,0.35277 -0.29104,0 -0.52917,-0.15875 -0.52917,-0.35277 z m 10.58333,-0.18746 c 0,-0.28496 0.23813,-0.5181 0.52917,-0.5181 0.29104,0 0.52917,0.14177 0.52917,0.31503 0,0.17328 -0.23813,0.40642 -0.52917,0.5181 -0.32234,0.12369 -0.52917,7.1e-4 -0.52917,-0.31503 z m -12.23614,-0.29872 c 0.10261,-0.2674 0.008,-0.66427 -0.2092,-0.88195 -0.62626,-0.62625 0.0151,-0.45996 0.79217,0.2054 0.51958,0.44488 0.58941,0.67275 0.26861,0.87654 -0.67151,0.42658 -1.05725,0.33599 -0.85158,-0.19999 z m 6.58118,-0.55251 c 0.44899,-0.83893 1.0339,-1.23053 1.35635,-0.90807 0.13231,0.1323 -0.0345,0.44171 -0.37076,0.68757 -0.33623,0.24585 -0.50796,0.55037 -0.38162,0.67671 0.12633,0.12633 -0.0405,0.2297 -0.37068,0.2297 -0.48532,0 -0.53003,-0.13144 -0.23329,-0.68591 z m 2.99818,-0.74292 c -0.33521,-0.54239 0.12395,-0.89234 0.57674,-0.43955 0.25335,0.25335 0.25944,0.45068 0.0185,0.59959 -0.19753,0.12208 -0.46539,0.0501 -0.59524,-0.16004 z m -7.75016,-0.68784 c -0.11992,-0.19403 -0.0593,-0.35278 0.13475,-0.35278 0.19403,0 0.45089,0.15875 0.57081,0.35278 0.11991,0.19403 0.0593,0.35278 -0.13475,0.35278 -0.19403,0 -0.45089,-0.15875 -0.57081,-0.35278 z m 8.99583,-0.72637 c 0,-0.20548 0.15875,-0.27549 0.35278,-0.15557 0.19403,0.11991 0.35278,0.28803 0.35278,0.3736 0,0.0856 -0.15875,0.15556 -0.35278,0.15556 -0.19403,0 -0.35278,-0.16812 -0.35278,-0.37359 z m -145.69721,-1.19308 c 0,-0.3025 0.15875,-0.54999 0.35278,-0.54999 0.19403,0 0.35278,0.14938 0.35278,0.33195 0,0.18258 -0.15875,0.43008 -0.35278,0.54999 -0.19403,0.11992 -0.35278,-0.0294 -0.35278,-0.33195 z m 134.82695,-0.98805 c 0.0764,-0.79011 0.30352,-1.16069 0.73482,-1.19881 0.43824,-0.0387 0.46452,-0.006 0.0882,0.11117 -0.74152,0.2301 -0.67022,0.72356 0.16947,1.17295 0.98126,0.52516 0.88114,1.05833 -0.19874,1.05833 -0.80731,0 -0.89244,-0.12265 -0.79375,-1.14364 z m 9.10637,-3.71038 c 0,-0.14736 0.30016,-0.45537 0.66702,-0.68448 0.57892,-0.36154 0.64337,-0.32616 0.48802,0.26792 -0.16804,0.64259 -1.15504,0.99855 -1.15504,0.41656 z m 3.23787,-4.89517 c -0.25646,-0.27819 -0.40212,-0.69832 -0.32369,-0.93362 0.0828,-0.24854 0.32718,-0.0829 0.58308,0.39522 0.52305,0.97734 0.39339,1.24649 -0.25939,0.5384 z m -3.22214,-3.27421 c -0.31697,-0.59225 -0.29007,-0.68269 0.1525,-0.51286 0.34388,0.13196 0.53733,0.002 0.53733,-0.36071 0,-0.31181 0.16929,-0.56692 0.37621,-0.56692 0.50578,0 0.26429,1.84935 -0.26413,2.02271 -0.2294,0.0753 -0.59026,-0.18674 -0.80191,-0.58222 z m -143.35149,-0.96052 c -0.28185,-0.28185 0.0368,-0.83274 0.4816,-0.83274 0.18257,0 0.33195,0.23812 0.33195,0.52916 0,0.54554 -0.41626,0.70087 -0.81355,0.30358 z m 142.56406,-0.36817 c 0.25466,-0.10191 0.55894,-0.0894 0.67616,0.0278 0.11723,0.11723 -0.0911,0.2006 -0.46302,0.18529 -0.41097,-0.0169 -0.49456,-0.10052 -0.21314,-0.21314 z m 0.0661,-1.07449 c 0.29104,-0.11079 0.6458,-0.37607 0.78835,-0.58951 0.15987,-0.23937 0.26125,-0.15151 0.26458,0.22929 0.004,0.41477 -0.25507,0.60822 -0.78834,0.58951 -0.53038,-0.0186 -0.61817,-0.0947 -0.26459,-0.22929 z m -140.40554,-8.915077 c 0,-0.19403 0.16811,-0.35278 0.37359,-0.35278 0.20548,0 0.27549,0.15875 0.15557,0.35278 -0.11991,0.19403 -0.28803,0.35278 -0.3736,0.35278 -0.0856,0 -0.15556,-0.15875 -0.15556,-0.35278 z m 126.50008,-6.65543 c -0.15197,-0.24589 -0.18103,-0.54234 -0.0646,-0.65878 0.31573,-0.31573 0.65997,0.14862 0.48944,0.6602 -0.11949,0.35848 -0.20259,0.3582 -0.42485,-0.001 z m 10.20129,-17.75256 c 0.77611,-0.1954 2.16554,-0.89542 3.08762,-1.55559 0.92209,-0.66017 1.80833,-1.20031 1.96943,-1.20031 0.72641,0 2.63396,-2.97155 2.7445,-4.27533 0.13598,-1.60391 -0.24778,-1.76577 -0.94589,-0.39898 -0.94625,1.85261 -1.91753,2.96484 -3.23645,3.70611 -0.72938,0.40994 -1.32615,0.95424 -1.32615,1.20955 0,0.25531 -0.15875,0.46421 -0.35278,0.46421 -0.19403,0 -0.35278,-0.14696 -0.35278,-0.32657 0,-0.17961 -0.97503,0.0555 -2.16673,0.52258 -1.19171,0.46702 -2.66908,0.94337 -3.28305,1.05855 -0.61396,0.11518 -1.30327,0.50881 -1.53178,0.87472 -0.39461,0.63187 -0.30499,0.65553 1.78373,0.47083 1.20957,-0.10697 2.83422,-0.35436 3.61033,-0.54977 z m -139.38104,-0.46284 c 1.09682,-0.48507 2.15716,-0.88195 2.3563,-0.88195 0.93557,0 3.50081,-1.48208 3.52622,-2.03729 0.0169,-0.36818 0.0981,-0.43437 0.20578,-0.16757 0.0979,0.24253 0.40586,0.44097 0.68443,0.44097 0.36714,0 0.44998,-0.26692 0.30111,-0.97014 -0.18665,-0.88169 -0.16644,-0.90581 0.2217,-0.26458 0.23489,0.38806 0.45729,0.74596 0.49423,0.79534 0.16865,0.22549 2.29823,-0.7262 2.29823,-1.02706 0,-0.1865 0.16833,-0.23505 0.37407,-0.1079 0.42082,0.26009 2.39062,-0.46043 3.06822,-1.12229 0.28986,-0.28313 0.31844,-0.51078 0.0824,-0.65664 -0.19868,-0.12279 -0.26656,-0.37645 -0.15085,-0.56368 0.12056,-0.19506 -0.1406,-0.27718 -0.6116,-0.1923 -0.45737,0.0824 -1.04638,-0.0929 -1.32781,-0.39527 -0.44849,-0.48182 -0.40412,-0.51788 0.39157,-0.31817 0.78075,0.19595 0.94496,0.077 1.26354,-0.91563 0.27999,-0.87235 0.37464,-0.96064 0.40218,-0.37513 0.0259,0.55111 0.33265,0.83088 1.09435,0.99817 0.75925,0.16676 1.0699,0.44884 1.09926,0.99817 0.0242,0.45307 0.10014,0.54821 0.18595,0.233 0.16536,-0.60738 2.10844,-1.98168 2.61356,-1.84853 0.18401,0.0485 0.33456,-0.052 0.33456,-0.22344 0,-0.17139 0.33399,-0.39897 0.7422,-0.50572 0.63131,-0.16509 0.71768,-0.0658 0.57809,0.66441 -0.0903,0.47218 -0.10013,0.8585 -0.0219,0.8585 0.0782,0 1.16081,-0.47625 2.40581,-1.05833 1.245,-0.58208 2.4447,-1.05833 2.666,-1.05833 0.22131,0 0.90261,-0.22379 1.51402,-0.49731 0.61141,-0.27352 3.8104,-1.5607 7.10887,-2.86041 3.29847,-1.29971 6.31472,-2.5601 6.70278,-2.80086 0.38805,-0.24077 1.30086,-0.54827 2.02847,-0.68335 0.7276,-0.13508 1.32292,-0.39716 1.32292,-0.58239 0,-0.18524 0.26386,-0.33679 0.58636,-0.33679 0.3225,0 1.23532,-0.38031 2.02847,-0.84513 0.79316,-0.46483 1.60086,-0.89047 1.79489,-0.94588 1.19498,-0.34127 2.29305,-0.87212 2.29305,-1.10856 0,-0.15149 0.22679,-0.27543 0.50397,-0.27543 0.27718,0 0.71375,-0.19989 0.97014,-0.44419 0.25639,-0.24431 1.25322,-0.64939 2.21516,-0.900196 0.96194,-0.250803 2.47007,-0.817813 3.35139,-1.260021 0.88132,-0.442208 2.07865,-0.921373 2.66073,-1.06481 1.07237,-0.264254 4.81585,-1.849241 8.99583,-3.808837 2.83371,-1.328454 3.34561,-1.536006 5.11528,-2.074016 1.35895,-0.413145 2.8686,-1.053447 7.40833,-3.142173 1.16417,-0.535631 3.30729,-1.500027 4.7625,-2.143102 1.45521,-0.643075 2.89646,-1.377749 3.20278,-1.632609 0.30632,-0.254861 0.6792,-0.463383 0.82863,-0.463383 0.44093,0 2.80196,-1.138039 3.39159,-1.634776 0.6043,-0.509097 4.97946,-2.227367 6.29728,-2.473149 0.46414,-0.08657 1.48614,-0.467695 2.27112,-0.846955 0.78498,-0.37926 1.67523,-0.691995 1.97834,-0.694966 0.4843,-0.0047 0.48696,-0.04602 0.0219,-0.340504 -0.31712,-0.20082 -7.77413,-0.329929 -18.60903,-0.322194 -15.27943,0.01091 -18.07986,0.08962 -18.07986,0.508161 0,0.382503 -0.20079,0.418915 -0.88194,0.159939 -0.56708,-0.215601 -0.88195,-0.212483 -0.88195,0.0087 0,0.189226 -0.32687,0.344047 -0.72637,0.344047 -0.39951,0 -0.64462,0.132291 -0.54469,0.293981 0.0999,0.16169 -0.0224,0.293982 -0.2718,0.293982 -0.27904,0 -0.39555,-0.303046 -0.30289,-0.787787 0.14726,-0.770307 0.0774,-0.787562 -3.14696,-0.777697 -2.51573,0.0077 -3.45831,0.145686 -3.97556,0.582 -0.37291,0.31455 -0.56048,0.371047 -0.41683,0.125549 0.20479,-0.349984 -0.58033,-0.435379 -3.63624,-0.395502 -2.14358,0.02797 -3.83686,0.149459 -3.76283,0.269971 0.074,0.120513 -0.55469,0.228177 -1.39716,0.239254 -0.84245,0.01108 -1.45255,-0.107985 -1.35577,-0.264583 0.0968,-0.156598 -1.01614,-0.284724 -2.47316,-0.284724 -2.1508,0 -2.71676,0.11613 -3.0087,0.617361 -0.34246,0.587963 -0.36009,0.587963 -0.37031,0 -0.01,-0.547835 -0.42529,-0.617361 -3.69193,-0.617361 -2.02466,0 -4.08841,0.154821 -4.58611,0.344046 -0.4977,0.189226 -0.90491,0.207071 -0.90491,0.03966 0,-0.167415 -1.38906,-0.232298 -3.0868,-0.144186 -3.75833,0.195057 -3.447,0.187081 -5.37986,0.137825 -0.87313,-0.02225 -7.06438,0.0028 -13.75833,0.05568 l -12.17084,0.09614 0.0531,12.170833 c 0.0292,6.693958 0.15191,16.060212 0.27268,20.813892 0.12076,4.75368 0.21095,9.15899 0.20043,9.78958 -0.0105,0.63059 0.0455,1.14653 0.1244,1.14653 0.0789,0 1.04095,-0.39688 2.13778,-0.88194 z m -0.31539,-1.94604 c 0.12187,-0.19719 0.36937,-0.2672 0.54999,-0.15556 0.48932,0.30241 0.39808,0.5141 -0.22159,0.5141 -0.30249,0 -0.45027,-0.16134 -0.3284,-0.35854 z m 2.69798,-0.34702 c 0,-0.48507 0.0801,-0.68351 0.17794,-0.44097 0.0979,0.24253 0.0979,0.63941 0,0.88194 -0.0979,0.24254 -0.17794,0.0441 -0.17794,-0.44097 z m -4.05483,-0.64622 c 0.0652,-0.2584 0.121,-0.5759 0.12398,-0.70555 0.003,-0.12965 0.15929,0.002 0.34737,0.29344 0.29225,0.45222 0.34276,0.4394 0.34738,-0.0882 0.003,-0.33955 0.14929,-0.61736 0.32515,-0.61736 0.17586,0 0.23437,0.32648 0.13003,0.72551 -0.10732,0.41038 -0.38954,0.64883 -0.64974,0.54898 -0.25301,-0.0971 -0.52363,-0.0664 -0.60138,0.0683 -0.0777,0.13462 -0.088,0.0333 -0.0228,-0.22507 z m 3.55756,-0.61849 c -0.1135,-0.11351 -0.0543,-0.64268 0.13161,-1.17593 0.33802,-0.96963 1.32884,-1.31179 1.78238,-0.61549 0.15754,0.24187 0.42666,0.20809 0.7981,-0.10017 0.41998,-0.34855 0.46256,-0.58299 0.16992,-0.93559 -0.21476,-0.25877 -0.30863,-0.67428 -0.20859,-0.92333 0.12747,-0.31736 0.19022,-0.29059 0.20974,0.0894 0.0294,0.57325 1.43896,0.88448 1.43896,0.31773 0,-0.18197 0.25136,-0.33085 0.55857,-0.33085 0.62877,0 0.49265,0.85751 -0.14699,0.92604 -0.22637,0.0243 -0.57033,0.0639 -0.76435,0.0882 -0.19403,0.0242 -0.33398,0.16316 -0.31101,0.30868 0.11103,0.70318 -0.0773,1.16622 -0.39455,0.97014 -0.19403,-0.11992 -0.35278,0.0201 -0.35278,0.31114 0,0.74574 -0.72644,1.10781 -1.07879,0.53769 -0.23516,-0.38049 -0.34125,-0.35411 -0.52747,0.13119 -0.22959,0.59831 -0.9011,0.80474 -1.30475,0.4011 z m 3.26379,-0.52 c 0,-0.20548 0.15875,-0.27548 0.35278,-0.15557 0.19403,0.11992 0.35278,0.28804 0.35278,0.3736 0,0.0856 -0.15875,0.15557 -0.35278,0.15557 -0.19403,0 -0.35278,-0.16812 -0.35278,-0.3736 z m 2.46944,-0.13739 c 0,-0.43898 1.74437,-1.95846 2.24831,-1.95846 0.49159,0 0.51279,0.10745 0.13927,0.70556 -0.24235,0.38806 -0.71994,0.70556 -1.06132,0.70556 -0.34139,0 -0.6207,0.15875 -0.6207,0.35277 0,0.19403 -0.15875,0.35278 -0.35278,0.35278 -0.19403,0 -0.35278,-0.0712 -0.35278,-0.15821 z m -9.49714,-0.75313 c 0.0169,-0.41097 0.10052,-0.49456 0.21313,-0.21314 0.10191,0.25466 0.0894,0.55893 -0.0279,0.67616 -0.11722,0.11722 -0.2006,-0.0911 -0.18528,-0.46302 z m 1.47855,-0.16965 c -0.0319,-0.42397 0.12093,-0.66969 0.3659,-0.58813 0.60042,0.19991 0.74369,1.31634 0.16891,1.31634 -0.26398,0 -0.50464,-0.32769 -0.53481,-0.72821 z m 11.54637,0.37544 c 0,-0.19403 0.16812,-0.35278 0.3736,-0.35278 0.20548,0 0.27548,0.15875 0.15557,0.35278 -0.11992,0.19402 -0.28804,0.35277 -0.3736,0.35277 -0.0856,0 -0.15557,-0.15875 -0.15557,-0.35277 z m 1.05834,-1.05834 c 0,-0.46254 0.17102,-0.61778 0.52916,-0.48035 0.29104,0.11169 0.52917,0.32784 0.52917,0.48035 0,0.15251 -0.23813,0.36867 -0.52917,0.48035 -0.35814,0.13744 -0.52916,-0.0178 -0.52916,-0.48035 z m -1.18591,-0.52916 c 0.11168,-0.29105 0.26545,-0.52917 0.3417,-0.52917 0.0763,0 0.13865,0.23812 0.13865,0.52917 0,0.29104 -0.15377,0.52916 -0.34171,0.52916 -0.18793,0 -0.25033,-0.23812 -0.13864,-0.52916 z m -10.25669,-0.2798 c 0.13248,-0.34792 0.32974,-0.54371 0.43835,-0.43509 0.10862,0.10861 2.3e-4,0.39327 -0.24087,0.63257 -0.34841,0.34582 -0.38893,0.3053 -0.19748,-0.19748 z m 7.19242,0.0468 c -0.42331,-0.29975 -0.4089,-0.32975 0.0829,-0.17266 0.37256,0.11899 0.65421,-0.0336 0.75283,-0.4077 0.1476,-0.55999 0.16015,-0.56007 0.19849,-0.001 0.0537,0.78216 -0.39486,1.03439 -1.03426,0.58162 z m 1.42795,-0.32925 c 0,-0.17586 0.3175,-0.31975 0.70556,-0.31975 0.38805,0 0.70555,0.0609 0.70555,0.13525 0,0.0744 -0.3175,0.21827 -0.70555,0.31975 -0.38806,0.10148 -0.70556,0.0406 -0.70556,-0.13525 z m -6.17361,-0.67253 c -0.11991,-0.19402 0.0295,-0.35277 0.33196,-0.35277 0.30249,0 0.54999,0.15875 0.54999,0.35277 0,0.19403 -0.14938,0.35278 -0.33196,0.35278 -0.18258,0 -0.43007,-0.15875 -0.54999,-0.35278 z m 2.32091,-0.20578 c 0.0169,-0.41097 0.10052,-0.49456 0.21314,-0.21314 0.1019,0.25466 0.0894,0.55893 -0.0279,0.67616 -0.11723,0.11722 -0.20061,-0.0911 -0.18529,-0.46302 z m 3.8527,-0.14699 c -0.47037,-0.30398 -0.47037,-0.34318 0,-0.35278 0.46831,-0.01 0.46865,-0.0491 0.003,-0.34349 -0.7828,-0.49491 10e-4,-1.0124 1.05539,-0.6966 0.64693,0.1938 0.70647,0.27357 0.22344,0.29937 -0.47868,0.0256 -0.60812,0.22784 -0.474,0.74072 0.20339,0.77776 -0.008,0.86989 -0.80778,0.35278 z m 6.95334,-0.35278 c 0.10148,-0.38806 0.24537,-0.70556 0.31975,-0.70556 0.0744,0 0.13525,0.3175 0.13525,0.70556 0,0.38805 -0.14389,0.70555 -0.31975,0.70555 -0.17587,0 -0.23673,-0.3175 -0.13525,-0.70555 z m -8.10649,-0.38106 c 0.12474,-0.47702 0.28465,-0.63694 0.37273,-0.37273 0.0848,0.25451 -0.0135,0.63047 -0.21848,0.83547 -0.26179,0.26179 -0.3077,0.12405 -0.15425,-0.46274 z m 2.91704,0.38106 c -0.45222,-0.29225 -0.4394,-0.34276 0.0882,-0.34738 0.33955,-0.003 0.61736,0.15335 0.61736,0.34738 0,0.43025 -0.0398,0.43025 -0.70555,0 z m -4.93889,-1.05834 c -0.45222,-0.29225 -0.4394,-0.34275 0.0882,-0.34737 0.33955,-0.003 0.61736,0.15335 0.61736,0.34737 0,0.43026 -0.0398,0.43026 -0.70555,0 z m 8.25329,0.12041 c 0.53835,-0.15449 0.57271,-0.25256 0.17639,-0.50351 -0.38891,-0.24626 -0.35648,-0.31278 0.15458,-0.31705 0.85125,-0.007 0.55582,0.85618 -0.32321,0.94448 -0.65342,0.0656 -0.65368,0.0614 -0.008,-0.12392 z m -11.07011,-0.53198 c -0.003,-0.32338 -0.20384,-0.66982 -0.44637,-0.76988 -0.24254,-0.10005 0.11465,-0.11025 0.79375,-0.0226 0.96634,0.12465 1.08136,0.0865 0.52917,-0.17546 -0.57131,-0.27104 -0.59368,-0.33944 -0.1176,-0.35952 0.32338,-0.0136 0.66073,-0.22323 0.74966,-0.46577 0.1251,-0.3412 0.27144,-0.32949 0.64676,0.0517 0.26678,0.271 0.2976,0.38748 0.0685,0.25883 -0.22913,-0.12864 -0.51631,-0.0726 -0.63819,0.12464 -0.12187,0.19719 -0.0138,0.36928 0.24021,0.38241 0.25399,0.0131 0.0649,0.20717 -0.42015,0.43121 -0.48507,0.22403 -0.99858,0.57047 -1.14113,0.76987 -0.15206,0.2127 -0.26141,0.11953 -0.26458,-0.22542 z m 4.43906,-0.21119 c 0.21313,-0.14255 0.35926,-0.60901 0.32474,-1.03657 -0.0345,-0.42756 0.0797,-0.68932 0.2539,-0.58168 0.17417,0.10765 0.23145,0.41778 0.1273,0.6892 -0.10415,0.27141 -0.0356,0.49348 0.15234,0.49348 0.18794,0 0.34171,0.15875 0.34171,0.35278 0,0.19403 -0.35719,0.35035 -0.79375,0.34738 -0.45576,-0.003 -0.62874,-0.11577 -0.40624,-0.26459 z m 3.31665,-0.43902 c 0,-0.38616 0.2249,-0.7021 0.49977,-0.7021 0.27487,0 0.57984,-0.19844 0.6777,-0.44098 0.11974,-0.29674 0.18705,-0.26469 0.20579,0.098 0.0153,0.29643 -0.28965,0.81081 -0.6777,1.14307 -0.67158,0.57503 -0.70556,0.57031 -0.70556,-0.098 z m -4.11574,-0.18846 c 0,-0.2825 0.13229,-0.51364 0.29398,-0.51364 0.16169,0 0.29398,0.14938 0.29398,0.33195 0,0.18258 -0.13229,0.41372 -0.29398,0.51365 -0.16169,0.0999 -0.29398,-0.0495 -0.29398,-0.33196 z m -7.01753,-0.3548 c 0.37664,-0.28139 0.50557,-0.51162 0.28651,-0.51162 -0.21905,0 -0.37529,-0.30516 -0.34719,-0.67813 0.0318,-0.42199 0.29328,-0.65989 0.69231,-0.62983 0.38731,0.0292 0.56795,0.23928 0.45616,0.53059 -0.10179,0.26526 -0.18507,0.68892 -0.18507,0.94146 0,0.25255 -0.35719,0.54917 -0.79375,0.65916 -0.76662,0.19315 -0.77034,0.1825 -0.10897,-0.31163 z m 17.30688,0.19393 c 0.11992,-0.19402 0.28804,-0.35277 0.3736,-0.35277 0.0856,0 0.15557,0.15875 0.15557,0.35277 0,0.19403 -0.16812,0.35278 -0.3736,0.35278 -0.20548,0 -0.27548,-0.15875 -0.15557,-0.35278 z m 2.29306,-0.20578 c -0.66252,-0.36762 -0.72835,-0.49067 -0.26459,-0.49457 0.33955,-0.003 0.61737,-0.24333 0.61737,-0.53437 0,-0.3257 0.30519,-0.51343 0.79375,-0.48824 0.64298,0.0331 0.67073,0.0727 0.1461,0.20809 -0.48642,0.12555 -0.59453,0.37883 -0.43425,1.01741 0.11736,0.46763 0.17068,0.83468 0.11848,0.81565 -0.0522,-0.019 -0.49179,-0.25481 -0.97686,-0.52397 z m -3.14715,-0.70556 c 0.0169,-0.41097 0.10052,-0.49456 0.21314,-0.21314 0.1019,0.25467 0.0894,0.55894 -0.0279,0.67616 -0.11723,0.11723 -0.20061,-0.0911 -0.18529,-0.46302 z m 8.3388,-0.13857 c -0.12731,-0.48682 0.0287,-0.62274 0.67243,-0.58575 0.46101,0.0265 0.83831,0.0526 0.83845,0.058 1.3e-4,0.005 -0.30246,0.26897 -0.67243,0.58575 -0.62518,0.53529 -0.68438,0.5312 -0.83845,-0.058 z m -17.51102,-0.273 c -0.0174,-0.49564 0.17871,-0.79375 0.52213,-0.79375 0.34015,0 0.45317,-0.16825 0.29622,-0.44098 -0.13957,-0.24253 -0.11789,-0.31731 0.0482,-0.16617 0.49765,0.45288 0.48831,1.3127 -0.0143,1.3127 -0.2577,0 -0.54862,0.19844 -0.64649,0.44097 -0.0979,0.24254 -0.19047,0.0838 -0.20578,-0.35277 z m 2.82806,0.2854 c -0.25399,-0.15697 -0.31821,-0.37415 -0.14271,-0.48261 0.1755,-0.10847 0.5269,-0.0688 0.78089,0.0882 0.25398,0.15697 0.3182,0.37415 0.1427,0.48261 -0.1755,0.10847 -0.5269,0.0688 -0.78088,-0.0882 z m 16.57471,-0.22661 c 0.0169,-0.41096 0.10052,-0.49456 0.21314,-0.21313 0.10191,0.25466 0.0894,0.55893 -0.0279,0.67615 -0.11723,0.11723 -0.2006,-0.0911 -0.18529,-0.46302 z m -11.66951,-0.53279 c 0,-0.17587 0.3175,-0.31975 0.70555,-0.31975 0.38806,0 0.70556,0.0609 0.70556,0.13524 0,0.0744 -0.3175,0.21827 -0.70556,0.31975 -0.38805,0.10148 -0.70555,0.0406 -0.70555,-0.13524 z m -9.17222,-0.31975 c 0,-0.19403 0.16811,-0.35278 0.37359,-0.35278 0.20548,0 0.27549,0.15875 0.15557,0.35278 -0.11991,0.19402 -0.28803,0.35277 -0.3736,0.35277 -0.0856,0 -0.15556,-0.15875 -0.15556,-0.35277 z m 19.52881,-0.17239 c 0.13197,-0.34392 -0.0106,-0.54305 -0.40169,-0.56102 -0.48916,-0.0225 -0.50406,-0.0668 -0.0771,-0.22929 0.29104,-0.11078 0.62756,-0.352 0.74782,-0.53602 0.12027,-0.18403 0.50581,-0.27929 0.85676,-0.21169 0.58996,0.11364 0.5947,0.1663 0.0627,0.69827 -0.31646,0.31645 -0.49671,0.65403 -0.40057,0.75017 0.0961,0.0961 -0.0878,0.27559 -0.40885,0.39877 -0.42219,0.16201 -0.52706,0.0765 -0.37907,-0.30919 z m -26.23159,-0.0921 c 0,-0.1684 0.23023,-0.61433 0.51162,-0.99096 0.49359,-0.66067 0.50452,-0.65663 0.31019,0.11446 -0.20068,0.7963 -0.82181,1.45876 -0.82181,0.8765 z m 5.29707,-0.68479 c 0.003,-0.15697 0.15929,-0.52353 0.34737,-0.81457 0.29471,-0.45603 0.34272,-0.44672 0.34738,0.0674 0.003,0.3281 -0.15335,0.69466 -0.34738,0.81457 -0.19403,0.11992 -0.35034,0.0896 -0.34737,-0.0674 z m 1.75848,-0.0674 c 0,-0.19402 0.15875,-0.45089 0.35278,-0.5708 0.19403,-0.11992 0.35278,-0.0593 0.35278,0.13475 0,0.19402 -0.15875,0.45089 -0.35278,0.5708 -0.19403,0.11992 -0.35278,0.0593 -0.35278,-0.13475 z m 1.76389,-0.5708 c 0,-0.29104 0.15875,-0.52917 0.35278,-0.52917 0.19403,0 0.35278,0.23813 0.35278,0.52917 0,0.29104 -0.15875,0.52916 -0.35278,0.52916 -0.19403,0 -0.35278,-0.23812 -0.35278,-0.52916 z m 1.76389,-0.35278 c 0,-0.29104 0.13229,-0.52917 0.29398,-0.52917 0.16169,0 0.29398,0.23813 0.29398,0.52917 0,0.29104 -0.13229,0.52917 -0.29398,0.52917 -0.16169,0 -0.29398,-0.23813 -0.29398,-0.52917 z m 2.46945,0.18746 c 0,-0.18794 0.23812,-0.25033 0.52916,-0.13865 0.29104,0.11169 0.52917,0.26545 0.52917,0.34171 0,0.0763 -0.23813,0.13865 -0.52917,0.13865 -0.29104,0 -0.52916,-0.15377 -0.52916,-0.34171 z m 7.76111,-0.27986 c 0,-0.36957 0.23812,-0.67195 0.52916,-0.67195 0.29104,0 0.52917,0.0643 0.52917,0.14279 0,0.0785 -0.23813,0.38091 -0.52917,0.67196 -0.47037,0.47037 -0.52916,0.4545 -0.52916,-0.1428 z m -20.6375,-0.43674 c -0.11992,-0.19403 -0.0102,-0.35521 0.24376,-0.35818 0.33937,-0.004 0.32151,-0.10461 -0.0674,-0.37963 -0.41367,-0.29255 -0.4204,-0.34495 -0.0308,-0.24006 0.27409,0.0738 0.53785,0.40338 0.58615,0.73241 0.0957,0.65178 -0.38164,0.8119 -0.73172,0.24546 z m 9.70139,-0.4017 c 0,-0.16712 0.39687,-0.30385 0.88194,-0.30385 0.48507,0 0.88194,0.0609 0.88194,0.13526 0,0.0744 -0.39687,0.21113 -0.88194,0.30386 -0.48507,0.0927 -0.88194,0.0319 -0.88194,-0.13527 z m -11.28889,-0.0897 c 0,-0.0763 0.23812,-0.23002 0.52916,-0.34171 0.29105,-0.11168 0.52917,-0.0493 0.52917,0.13865 0,0.18794 -0.23812,0.3417 -0.52917,0.3417 -0.29104,0 -0.52916,-0.0624 -0.52916,-0.13864 z m 4.96674,-0.7727 c 0.0169,-0.41096 0.10052,-0.49456 0.21313,-0.21313 0.10191,0.25466 0.0894,0.55893 -0.0279,0.67615 -0.11722,0.11723 -0.2006,-0.0911 -0.18528,-0.46302 z m 2.65689,-0.32338 c 0.29015,-1.29714 0.49206,-1.57872 0.48485,-0.67616 -0.003,0.37189 -0.16654,0.91429 -0.36349,1.20533 -0.26152,0.38645 -0.29425,0.24374 -0.12136,-0.52917 z m 6.75206,0.64831 c 0.24254,-0.0979 0.63941,-0.0979 0.88194,0 0.24254,0.0979 0.0441,0.17793 -0.44097,0.17793 -0.48507,0 -0.6835,-0.0801 -0.44097,-0.17793 z m -3.16849,-0.53134 c 0.205,-0.205 0.58096,-0.30332 0.83547,-0.21848 0.26421,0.0881 0.1043,0.24798 -0.37273,0.37272 -0.58679,0.15345 -0.72453,0.10754 -0.46274,-0.15424 z m -10.37384,-0.18597 c 0.38128,-0.38129 1.2833,-0.43483 1.2833,-0.0762 0,0.17686 -0.34395,0.32156 -0.76435,0.32156 -0.42039,0 -0.65392,-0.11043 -0.51895,-0.24539 z m 3.39997,-0.81294 c 0,-0.19403 0.16812,-0.35278 0.3736,-0.35278 0.20548,0 0.27548,0.15875 0.15557,0.35278 -0.11992,0.19403 -0.28804,0.35278 -0.3736,0.35278 -0.0856,0 -0.15557,-0.15875 -0.15557,-0.35278 z m 1.08618,-0.20579 c 0.0169,-0.41096 0.10053,-0.49456 0.21314,-0.21314 0.10191,0.25467 0.0894,0.55894 -0.0279,0.67616 -0.11722,0.11723 -0.2006,-0.0911 -0.18529,-0.46302 z m -3.41292,-0.0925 c 0.13844,-0.22401 0.0836,-0.40729 -0.12188,-0.40729 -0.48192,0 -0.47262,-1.08097 0.0152,-1.76389 0.29818,-0.41745 0.33739,-0.34684 0.18575,0.33442 -0.10573,0.47498 -0.0324,1.05616 0.16291,1.29151 0.24266,0.29239 0.22072,0.51101 -0.0693,0.69023 -0.26906,0.16629 -0.33228,0.11323 -0.1727,-0.14498 z m 4.70799,-1.69926 c 0.24253,-0.0979 0.63941,-0.0979 0.88194,0 0.24254,0.0979 0.0441,0.17794 -0.44097,0.17794 -0.48507,0 -0.6835,-0.0801 -0.44097,-0.17794 z m 36.35816,-0.007 c 0.25466,-0.1019 0.55893,-0.0894 0.67616,0.0279 0.11722,0.11723 -0.0911,0.20061 -0.46303,0.18529 -0.41096,-0.0169 -0.49455,-0.10052 -0.21313,-0.21314 z m -39.41711,-1.37591 c 0.0169,-0.41096 0.10052,-0.49456 0.21313,-0.21314 0.10191,0.25467 0.0894,0.55894 -0.0279,0.67616 -0.11722,0.11723 -0.2006,-0.0911 -0.18528,-0.46302 z m -0.36983,-1.73449 c 0,-0.194027 0.15389,-0.590902 0.34197,-0.881944 0.18809,-0.291042 0.34198,-0.370417 0.34198,-0.176389 0,0.194028 -0.15389,0.590903 -0.34198,0.881944 -0.18808,0.291042 -0.34197,0.370417 -0.34197,0.176389 z m 1.75309,-0.902764 c 0,-0.205479 0.15875,-0.275485 0.35277,-0.155569 0.19403,0.119916 0.35278,0.288035 0.35278,0.373598 0,0.08556 -0.15875,0.155569 -0.35278,0.155569 -0.19402,0 -0.35277,-0.168119 -0.35277,-0.373598 z m 56.10246,-5.094458 c 0,-0.194027 0.15389,-0.590902 0.34198,-0.881944 0.18808,-0.291042 0.34197,-0.370417 0.34197,-0.176389 0,0.194028 -0.15389,0.590903 -0.34197,0.881944 -0.18809,0.291042 -0.34198,0.370417 -0.34198,0.176389 z m -50.87694,-2.534043 c 0.25466,-0.101907 0.55893,-0.08937 0.67615,0.02785 0.11723,0.117225 -0.0911,0.200604 -0.46302,0.185286 -0.41096,-0.01693 -0.49456,-0.100521 -0.21313,-0.213136 z m 39.5111,-0.705555 c 0.25466,-0.101907 0.55893,-0.08937 0.67616,0.02785 0.11723,0.117225 -0.0911,0.200604 -0.46302,0.185286 -0.41097,-0.01693 -0.49456,-0.100521 -0.21314,-0.213136 z M -266.10648,31.1487 c 0.21252,-0.812668 0.31394,-0.812668 0.52646,0 0.0961,0.367353 -0.0177,0.646759 -0.26323,0.646759 -0.24558,0 -0.35929,-0.279406 -0.26323,-0.646759 z m 59.00073,-0.646759 c -0.31796,-0.205479 -0.36147,-0.34413 -0.10902,-0.347376 0.23108,-0.003 0.51827,0.153348 0.63818,0.347376 0.27069,0.437982 0.14856,0.437982 -0.52916,0 z m -16.29393,-0.946543 c 0.25466,-0.101908 0.55893,-0.08937 0.67616,0.02785 0.11723,0.117225 -0.0911,0.200603 -0.46302,0.185285 -0.41097,-0.01693 -0.49456,-0.10052 -0.21314,-0.213135 z m 6.35,0 c 0.25466,-0.101908 0.55893,-0.08937 0.67616,0.02785 0.11723,0.117225 -0.0911,0.200603 -0.46302,0.185285 -0.41097,-0.01693 -0.49456,-0.10052 -0.21314,-0.213135 z m -11.99444,-0.705556 c 0.25466,-0.101907 0.55893,-0.08937 0.67616,0.02785 0.11722,0.117225 -0.0911,0.200604 -0.46302,0.185286 -0.41097,-0.01693 -0.49456,-0.100521 -0.21314,-0.213136 z m 70.78839,42.456201 c -1.01269,-0.68479 -1.93058,-0.96733 -1.93058,-0.59425 0,0.44663 1.08879,1.04109 1.93058,1.05407 0.69262,0.0107 0.69262,0.009 0,-0.45982 z m 4.63299,-2.17015 c 2.95841,-0.77057 4.94099,-1.83967 6.67692,-3.60051 1.83348,-1.85979 2.26636,-2.89053 1.4142,-3.36743 -0.54926,-0.30738 -0.55107,-0.38171 -0.0235,-0.96472 0.4856,-0.53658 0.49849,-0.70484 0.0856,-1.11773 -0.26733,-0.26732 -0.41301,-0.70516 -0.32375,-0.97297 0.0983,-0.29484 0.005,-0.38976 -0.23623,-0.24062 -0.2192,0.13548 -0.40098,0.0385 -0.40395,-0.21548 -0.004,-0.33813 -0.10264,-0.32009 -0.36856,0.0674 -0.30194,0.43995 -0.35365,0.41021 -0.30676,-0.17639 0.12383,-1.54871 -0.088,-1.91023 -1.65808,-2.83038 -1.34779,-0.78986 -1.90137,-0.9204 -3.16729,-0.74688 -0.84372,0.11564 -1.81532,0.35955 -2.15911,0.54202 -0.34379,0.18246 -1.38855,0.66747 -2.32169,1.07778 -1.99181,0.87582 -4.41067,3.1779 -5.29008,5.03467 -0.54407,1.14874 -0.57133,1.6044 -0.21752,3.63611 0.26508,1.52221 0.70559,2.68062 1.27808,3.36099 0.78394,0.93166 1.08579,1.03819 2.94167,1.03819 1.13746,0 2.97345,-0.23581 4.07999,-0.52403 z m 7.37115,-8.64819 c 0.11991,-0.19403 0.28803,-0.35278 0.37359,-0.35278 0.0856,0 0.15557,0.15875 0.15557,0.35278 0,0.19403 -0.16812,0.35278 -0.3736,0.35278 -0.20547,0 -0.27548,-0.15875 -0.15556,-0.35278 z m -129.64583,4.43492 c 0,-0.11088 -0.35718,-0.18905 -0.79375,-0.17374 -0.43656,0.0153 -0.60423,0.10495 -0.37259,0.19918 0.23177,0.0943 0.31997,0.43869 0.19613,0.7659 -0.21067,0.55663 -0.1869,0.55679 0.37259,0.002 0.32869,-0.32575 0.59762,-0.68294 0.59762,-0.79381 z m 4.3126,-0.67053 c 0.36684,-0.57671 0.3361,-0.94217 -0.0793,-0.94217 -0.19403,0 -0.35278,0.15368 -0.35278,0.34151 0,0.18783 -0.43656,0.59295 -0.97014,0.90026 l -0.97014,0.55874 1.0548,-0.22267 c 0.58014,-0.12247 1.17302,-0.40852 1.31752,-0.63567 z m 128.59642,-1.47134 c 0,-0.51313 -0.20285,-0.88194 -0.48507,-0.88194 -0.59758,0 -0.60517,0.17004 -0.0474,1.06312 0.54606,0.87438 0.5325,0.879 0.5325,-0.18118 z m -0.19029,-9.61319 c -0.0966,-5.433186 -0.27409,-8.149504 -0.54946,-8.408974 -0.49258,-0.464126 -3.40164,-1.363974 -4.03759,-1.248932 -0.2507,0.04535 -0.93756,-0.322912 -1.52637,-0.818361 -0.58881,-0.495449 -1.45741,-0.900817 -1.93022,-0.900817 -0.47282,0 -1.13533,-0.143889 -1.47224,-0.319753 -0.33692,-0.175864 -1.32695,-0.508456 -2.20008,-0.739092 -0.87312,-0.230636 -1.905,-0.696055 -2.29305,-1.034265 -0.38806,-0.338209 -1.26118,-0.82184 -1.94028,-1.074734 -1.46942,-0.547211 -4.87808,-1.954483 -6.96352,-2.874902 -0.8225,-0.363018 -1.84394,-0.660031 -2.26987,-0.660031 -0.69131,0 -2.84658,-0.841055 -4.64749,-1.813607 -2.58532,-1.396158 0.95362,3.711171 8.19726,11.830123 6.47675,7.259395 7.25756,8.158875 7.80942,8.996395 0.53451,0.81118 0.55174,0.81294 2.44528,0.25062 1.04884,-0.31147 2.36074,-0.56631 2.91533,-0.56631 1.23477,0 3.63281,1.16596 4.97736,2.42006 0.82352,0.76812 2.30618,3.30394 2.55562,4.37091 0.034,0.14552 0.0817,0.34396 0.10595,0.44097 0.0243,0.097 0.25167,0.17639 0.50537,0.17639 0.37051,0 0.4332,-1.57921 0.31858,-8.02569 z m -103.96734,3.0868 c 0.11992,-0.19402 0.0593,-0.35277 -0.13475,-0.35277 -0.19403,0 -0.45089,0.15875 -0.5708,0.35277 -0.11992,0.19403 -0.0593,0.35278 0.13475,0.35278 0.19402,0 0.45088,-0.15875 0.5708,-0.35278 z m 88.90908,-0.21478 0.86622,-0.56757 -0.76243,-1.10813 c -0.41933,-0.60947 -1.8069,-2.21991 -3.08348,-3.57875 -1.27659,-1.35884 -3.03544,-3.333188 -3.90856,-4.387438 -0.87313,-1.05425 -1.82563,-2.170975 -2.11667,-2.481612 -0.29104,-0.310637 -1.55655,-1.908164 -2.81225,-3.55006 -1.2557,-1.641896 -2.40664,-3.038183 -2.55764,-3.102858 -0.151,-0.06468 -0.27455,-0.30711 -0.27455,-0.538741 0,-0.231631 -0.46114,-0.92603 -1.02476,-1.543107 -1.1962,-1.309679 -1.43722,-1.278628 -5.69091,0.733175 -1.46229,0.691599 -3.31591,1.362543 -4.11914,1.490986 l -1.46043,0.233532 0.91077,0.844072 c 0.50092,0.46424 3.20548,2.385909 6.01014,4.270375 2.80466,1.884466 5.75655,4.003159 6.55977,4.708206 2.31358,2.030814 11.83016,9.14548 12.23301,9.14548 0.20058,0 0.7545,-0.2554 1.23091,-0.56756 z m -17.47159,-6.234075 c 0,-0.05437 -0.88658,-0.729061 -1.97019,-1.499306 -1.08361,-0.770245 -2.67111,-1.923655 -3.52778,-2.563133 -1.65418,-1.234793 -1.79739,-1.232184 -1.14997,0.02095 0.22418,0.43393 0.51427,1.019122 0.64464,1.300426 0.40314,0.869895 1.91256,1.799559 3.73267,2.298987 1.89293,0.519409 2.27063,0.592946 2.27063,0.442078 z m -6.54672,-13.979351 c 0.10874,-0.175933 -0.12002,-0.236793 -0.50834,-0.135244 -0.82374,0.215411 -0.92786,0.455122 -0.1977,0.455122 0.27959,0 0.59731,-0.143945 0.70604,-0.319878 z m 1.76389,-0.705556 c 0.10873,-0.175933 -0.12002,-0.236793 -0.50834,-0.135244 -0.82374,0.215411 -0.92786,0.455122 -0.1977,0.455122 0.27959,0 0.59731,-0.143945 0.70604,-0.319878 z m 3.21322,-1.452035 c 2.56542,-1.151027 2.90829,-1.88216 0.43095,-0.918949 -1.39196,0.541208 -3.57178,1.959437 -3.03936,1.977463 0.12743,0.0043 1.30122,-0.472017 2.60841,-1.058514 z m 33.65682,-0.962114 c -0.0196,-0.778185 -0.9867,-4.299401 -1.01895,-3.71011 -0.0247,0.451542 -3.06771,2.137455 -4.60992,2.554044 -0.71806,0.193963 -0.3575,0.374502 1.94027,0.971542 3.56055,0.925152 3.70746,0.932501 3.6886,0.184524 z m -6.66364,-2.473033 0.55275,-1.319328 -0.99372,-0.03756 c -0.54654,-0.02066 -0.99371,0.11784 -0.99371,0.307779 0,0.21495 -0.1665,0.207643 -0.44097,-0.01935 -0.61232,-0.506409 -2.47097,-0.111573 -2.24514,0.47694 0.0974,0.253735 -0.0125,0.552526 -0.24412,0.66398 -0.23164,0.111454 0.11153,0.12233 0.76258,0.02417 0.92825,-0.139953 1.14187,-0.06933 0.9897,0.327214 -0.18577,0.484094 0.33041,0.773472 1.53073,0.858159 0.29626,0.0209 0.77244,-0.543349 1.0819,-1.281994 z m -4.85419,-0.310464 c 0.12422,-0.124221 -0.34552,-0.532094 -1.04386,-0.906384 -1.07717,-0.577328 -1.4252,-0.616123 -2.29504,-0.255825 -0.56393,0.233587 -1.12607,0.32396 -1.2492,0.200829 -0.12313,-0.12313 -0.0387,-0.223873 0.1877,-0.223873 0.22637,0 0.41158,-0.15875 0.41158,-0.352778 0,-0.194028 -0.71438,-0.352778 -1.5875,-0.352778 -0.92544,0 -1.5875,0.162867 -1.5875,0.390521 0,0.214787 0.23812,0.299144 0.52917,0.187461 0.29104,-0.111683 0.52916,-0.0793 0.52916,0.07195 0,0.499094 3.58072,1.24633 3.85394,0.804252 0.17405,-0.281632 0.44213,-0.246407 0.92936,0.12212 0.77239,0.584205 0.99866,0.638027 1.32219,0.314502 z"
       style="fill:#000000;stroke-width:0.35277775" />
  </g>
</svg>
